<?xml version="1.0" encoding="UTF-8" standalone="no"?>
<!-- Created with Inkscape (http://www.inkscape.org/) -->

<svg
   xmlns:dc="http://purl.org/dc/elements/1.1/"
   xmlns:cc="http://creativecommons.org/ns#"
   xmlns:rdf="http://www.w3.org/1999/02/22-rdf-syntax-ns#"
   xmlns:svg="http://www.w3.org/2000/svg"
   xmlns="http://www.w3.org/2000/svg"
   xmlns:sodipodi="http://sodipodi.sourceforge.net/DTD/sodipodi-0.dtd"
   xmlns:inkscape="http://www.inkscape.org/namespaces/inkscape"
   width="442.91339"
   height="435.26175"
   id="svg4337"
   version="1.1"
   inkscape:version="0.48.3.1 r9886"
   sodipodi:docname="edicao_lanczos_omp.svg">
  <defs
     id="defs4339" />
  <sodipodi:namedview
     id="base"
     pagecolor="#ffffff"
     bordercolor="#666666"
     borderopacity="1.0"
     inkscape:pageopacity="0.0"
     inkscape:pageshadow="2"
     inkscape:zoom="0.98994949"
     inkscape:cx="119.78895"
     inkscape:cy="244.33123"
     inkscape:document-units="px"
     inkscape:current-layer="layer2"
     showgrid="false"
     fit-margin-top="0"
     fit-margin-left="0"
     fit-margin-right="0"
     fit-margin-bottom="0"
     inkscape:window-width="1600"
     inkscape:window-height="876"
     inkscape:window-x="0"
     inkscape:window-y="24"
     inkscape:window-maximized="1" />
  <metadata
     id="metadata4342">
    <rdf:RDF>
      <cc:Work
         rdf:about="">
        <dc:format>image/svg+xml</dc:format>
        <dc:type
           rdf:resource="http://purl.org/dc/dcmitype/StillImage" />
        <dc:title></dc:title>
      </cc:Work>
    </rdf:RDF>
  </metadata>
  <g
     inkscape:groupmode="layer"
     id="layer2"
     inkscape:label="Camada"
     transform="translate(2.3704e-6,3.1646286)">
    <path
       style="fill:none;stroke:#000000;stroke-width:2.5;stroke-linecap:butt;stroke-linejoin:miter;stroke-miterlimit:4;stroke-opacity:1;stroke-dasharray:2.5, 2.5;stroke-dashoffset:0"
       d="m 27.04082,215.30821 c 388.83176,0 388.83176,0 388.83176,0"
       id="path4967-1"
       inkscape:connector-curvature="0"
       inkscape:export-filename="/home/bruno/Materias_UFPR/TG_CUDA/Artigo_TG/Imagens/graficos_lanczos/lanczos_omp.png"
       inkscape:export-xdpi="300"
       inkscape:export-ydpi="300" />
    <g
       transform="matrix(1.2866523,0,0,-1.2866523,-5.2047647,259.9622)"
       inkscape:label="ink_ext_XXXXXX"
       id="g3424"
       inkscape:export-filename="/home/bruno/Materias_UFPR/TG_CUDA/Artigo_TG/Imagens/graficos_lanczos/lanczos_omp.png"
       inkscape:export-xdpi="300"
       inkscape:export-ydpi="300">
      <g
         transform="scale(0.1,0.1)"
         id="g3426">
        <path
           id="path3428"
           style="fill:none;stroke:#000000;stroke-width:5;stroke-linecap:butt;stroke-linejoin:miter;stroke-miterlimit:3.79999995;stroke-opacity:1;stroke-dasharray:none"
           d="m 430,866.5 31.5,0 m 2958,0 -31.5,0"
           inkscape:connector-curvature="0" />
        <g
           transform="scale(10,10)"
           id="g3430">
          <text
             id="text3432"
             transform="matrix(1,0,0,-1,17.5508,83.3148)">
            <tspan
               id="tspan3434"
               sodipodi:role="line"
               y="0"
               x="0 5.5599999 11.12"
               style="font-size:10px;font-variant:normal;font-weight:normal;writing-mode:lr-tb;fill:#000000;fill-opacity:1;fill-rule:nonzero;stroke:none;font-family:Helvetica;-inkscape-font-specification:Helvetica">00m</tspan>
          </text>
        </g>
        <path
           id="path3436"
           style="fill:none;stroke:#000000;stroke-width:5;stroke-linecap:butt;stroke-linejoin:miter;stroke-miterlimit:3.79999995;stroke-opacity:1;stroke-dasharray:none"
           d="m 430,898 15.5,0 m 2974,0 -15.5,0 m -2974,32 15.5,0 m 2974,0 -15.5,0 m -2974,31.5 31.5,0 m 2958,0 -31.5,0"
           inkscape:connector-curvature="0" />
        <g
           transform="scale(10,10)"
           id="g3438">
          <text
             id="text3440"
             transform="matrix(1,0,0,-1,17.5508,92.8148)">
            <tspan
               id="tspan3442"
               sodipodi:role="line"
               y="0"
               x="0 5.5599999 11.12"
               style="font-size:10px;font-variant:normal;font-weight:normal;writing-mode:lr-tb;fill:#000000;fill-opacity:1;fill-rule:nonzero;stroke:none;font-family:Helvetica;-inkscape-font-specification:Helvetica">01m</tspan>
          </text>
        </g>
        <path
           id="path3444"
           style="fill:none;stroke:#000000;stroke-width:5;stroke-linecap:butt;stroke-linejoin:miter;stroke-miterlimit:3.79999995;stroke-opacity:1;stroke-dasharray:none"
           d="m 430,993.5 15.5,0 m 2974,0 -15.5,0 m -2974,31.5 15.5,0 m 2974,0 -15.5,0 m -2974,31.5 31.5,0 m 2958,0 -31.5,0"
           inkscape:connector-curvature="0" />
        <g
           transform="scale(10,10)"
           id="g3446">
          <text
             id="text3448"
             transform="matrix(1,0,0,-1,17.5508,102.315)">
            <tspan
               id="tspan3450"
               sodipodi:role="line"
               y="0"
               x="0 5.5599999 11.12"
               style="font-size:10px;font-variant:normal;font-weight:normal;writing-mode:lr-tb;fill:#000000;fill-opacity:1;fill-rule:nonzero;stroke:none;font-family:Helvetica;-inkscape-font-specification:Helvetica">02m</tspan>
          </text>
        </g>
        <path
           id="path3452"
           style="fill:none;stroke:#000000;stroke-width:5;stroke-linecap:butt;stroke-linejoin:miter;stroke-miterlimit:3.79999995;stroke-opacity:1;stroke-dasharray:none"
           d="m 430,1088.5 15.5,0 m 2974,0 -15.5,0 m -2974,31.5 15.5,0 m 2974,0 -15.5,0 m -2974,32 31.5,0 m 2958,0 -31.5,0"
           inkscape:connector-curvature="0" />
        <g
           transform="scale(10,10)"
           id="g3454">
          <text
             id="text3456"
             transform="matrix(1,0,0,-1,17.5508,111.865)">
            <tspan
               id="tspan3458"
               sodipodi:role="line"
               y="0"
               x="0 5.5599999 11.12"
               style="font-size:10px;font-variant:normal;font-weight:normal;writing-mode:lr-tb;fill:#000000;fill-opacity:1;fill-rule:nonzero;stroke:none;font-family:Helvetica;-inkscape-font-specification:Helvetica">03m</tspan>
          </text>
        </g>
        <path
           id="path3460"
           style="fill:none;stroke:#000000;stroke-width:5;stroke-linecap:butt;stroke-linejoin:miter;stroke-miterlimit:3.79999995;stroke-opacity:1;stroke-dasharray:none"
           d="m 430,1183.5 15.5,0 m 2974,0 -15.5,0 m -2974,31.5 15.5,0 m 2974,0 -15.5,0 m -2974,32 31.5,0 m 2958,0 -31.5,0"
           inkscape:connector-curvature="0" />
        <g
           transform="scale(10,10)"
           id="g3462">
          <text
             id="text3464"
             transform="matrix(1,0,0,-1,17.5508,121.365)">
            <tspan
               id="tspan3466"
               sodipodi:role="line"
               y="0"
               x="0 5.5599999 11.12"
               style="font-size:10px;font-variant:normal;font-weight:normal;writing-mode:lr-tb;fill:#000000;fill-opacity:1;fill-rule:nonzero;stroke:none;font-family:Helvetica;-inkscape-font-specification:Helvetica">04m</tspan>
          </text>
        </g>
        <path
           id="path3468"
           style="fill:none;stroke:#000000;stroke-width:5;stroke-linecap:butt;stroke-linejoin:miter;stroke-miterlimit:3.79999995;stroke-opacity:1;stroke-dasharray:none"
           d="m 430,1278.5 15.5,0 m 2974,0 -15.5,0 m -2974,31.5 15.5,0 m 2974,0 -15.5,0 m -2974,32 31.5,0 m 2958,0 -31.5,0"
           inkscape:connector-curvature="0" />
        <g
           transform="scale(10,10)"
           id="g3470">
          <text
             id="text3472"
             transform="matrix(1,0,0,-1,17.5508,130.865)">
            <tspan
               id="tspan3474"
               sodipodi:role="line"
               y="0"
               x="0 5.5599999 11.12"
               style="font-size:10px;font-variant:normal;font-weight:normal;writing-mode:lr-tb;fill:#000000;fill-opacity:1;fill-rule:nonzero;stroke:none;font-family:Helvetica;-inkscape-font-specification:Helvetica">05m</tspan>
          </text>
        </g>
        <path
           id="path3476"
           style="fill:none;stroke:#000000;stroke-width:5;stroke-linecap:butt;stroke-linejoin:miter;stroke-miterlimit:3.79999995;stroke-opacity:1;stroke-dasharray:none"
           d="m 430,1373.5 15.5,0 m 2974,0 -15.5,0 m -2974,32 15.5,0 m 2974,0 -15.5,0 m -2974,31.5 31.5,0 m 2958,0 -31.5,0"
           inkscape:connector-curvature="0" />
        <g
           transform="scale(10,10)"
           id="g3478">
          <text
             id="text3480"
             transform="matrix(1,0,0,-1,17.5508,140.365)">
            <tspan
               id="tspan3482"
               sodipodi:role="line"
               y="0"
               x="0 5.5599999 11.12"
               style="font-size:10px;font-variant:normal;font-weight:normal;writing-mode:lr-tb;fill:#000000;fill-opacity:1;fill-rule:nonzero;stroke:none;font-family:Helvetica;-inkscape-font-specification:Helvetica">06m</tspan>
          </text>
        </g>
        <path
           id="path3484"
           style="fill:none;stroke:#000000;stroke-width:5;stroke-linecap:butt;stroke-linejoin:miter;stroke-miterlimit:3.79999995;stroke-opacity:1;stroke-dasharray:none"
           d="m 430,1468.5 15.5,0 m 2974,0 -15.5,0 m -2974,32 15.5,0 m 2974,0 -15.5,0 m -2974,31.5 31.5,0 m 2958,0 -31.5,0"
           inkscape:connector-curvature="0" />
        <g
           transform="scale(10,10)"
           id="g3486">
          <text
             id="text3488"
             transform="matrix(1,0,0,-1,17.5508,149.865)">
            <tspan
               id="tspan3490"
               sodipodi:role="line"
               y="0"
               x="0 5.5599999 11.12"
               style="font-size:10px;font-variant:normal;font-weight:normal;writing-mode:lr-tb;fill:#000000;fill-opacity:1;fill-rule:nonzero;stroke:none;font-family:Helvetica;-inkscape-font-specification:Helvetica">07m</tspan>
          </text>
        </g>
        <path
           id="path3492"
           style="fill:none;stroke:#000000;stroke-width:5;stroke-linecap:butt;stroke-linejoin:miter;stroke-miterlimit:3.79999995;stroke-opacity:1;stroke-dasharray:none"
           d="m 430,1564 15.5,0 m 2974,0 -15.5,0 m -2974,31.5 15.5,0 m 2974,0 -15.5,0 m -2974,31.5 31.5,0 m 2958,0 -31.5,0"
           inkscape:connector-curvature="0" />
        <g
           transform="scale(10,10)"
           id="g3494">
          <text
             id="text3496"
             transform="matrix(1,0,0,-1,17.5508,159.365)">
            <tspan
               id="tspan3498"
               sodipodi:role="line"
               y="0"
               x="0 5.5599999 11.12"
               style="font-size:10px;font-variant:normal;font-weight:normal;writing-mode:lr-tb;fill:#000000;fill-opacity:1;fill-rule:nonzero;stroke:none;font-family:Helvetica;-inkscape-font-specification:Helvetica">08m</tspan>
          </text>
        </g>
        <path
           id="path3500"
           style="fill:none;stroke:#000000;stroke-width:5;stroke-linecap:butt;stroke-linejoin:miter;stroke-miterlimit:3.79999995;stroke-opacity:1;stroke-dasharray:none"
           d="m 430,1659 15.5,0 m 2974,0 -15.5,0 m -2974,31.5 15.5,0 m 2974,0 -15.5,0 m -2974,32 31.5,0 m 2958,0 -31.5,0"
           inkscape:connector-curvature="0" />
        <g
           transform="scale(10,10)"
           id="g3502">
          <text
             id="text3504"
             transform="matrix(1,0,0,-1,17.5508,168.915)">
            <tspan
               id="tspan3506"
               sodipodi:role="line"
               y="0"
               x="0 5.5599999 11.12"
               style="font-size:10px;font-variant:normal;font-weight:normal;writing-mode:lr-tb;fill:#000000;fill-opacity:1;fill-rule:nonzero;stroke:none;font-family:Helvetica;-inkscape-font-specification:Helvetica">09m</tspan>
          </text>
        </g>
        <path
           id="path3508"
           style="fill:none;stroke:#000000;stroke-width:5;stroke-linecap:butt;stroke-linejoin:miter;stroke-miterlimit:3.79999995;stroke-opacity:1;stroke-dasharray:none"
           d="m 430,1754 15.5,0 m 2974,0 -15.5,0 m -2974,31.5 15.5,0 m 2974,0 -15.5,0 m -2974,32 31.5,0 m 2958,0 -31.5,0"
           inkscape:connector-curvature="0" />
        <g
           transform="scale(10,10)"
           id="g3510">
          <text
             id="text3512"
             transform="matrix(1,0,0,-1,17.5508,178.415)">
            <tspan
               id="tspan3514"
               sodipodi:role="line"
               y="0"
               x="0 5.5599999 11.12"
               style="font-size:10px;font-variant:normal;font-weight:normal;writing-mode:lr-tb;fill:#000000;fill-opacity:1;fill-rule:nonzero;stroke:none;font-family:Helvetica;-inkscape-font-specification:Helvetica">10m</tspan>
          </text>
        </g>
        <path
           id="path3516"
           style="fill:none;stroke:#000000;stroke-width:5;stroke-linecap:butt;stroke-linejoin:miter;stroke-miterlimit:3.79999995;stroke-opacity:1;stroke-dasharray:none"
           d="m 430,1849 15.5,0 m 2974,0 -15.5,0 m -2974,31.5 15.5,0 m 2974,0 -15.5,0 m -2974,32 31.5,0 m 2958,0 -31.5,0"
           inkscape:connector-curvature="0" />
        <g
           transform="scale(10,10)"
           id="g3518">
          <text
             id="text3520"
             transform="matrix(1,0,0,-1,17.5508,187.915)">
            <tspan
               id="tspan3522"
               sodipodi:role="line"
               y="0"
               x="0 5.5599999 11.12"
               style="font-size:10px;font-variant:normal;font-weight:normal;writing-mode:lr-tb;fill:#000000;fill-opacity:1;fill-rule:nonzero;stroke:none;font-family:Helvetica;-inkscape-font-specification:Helvetica">11m</tspan>
          </text>
        </g>
        <path
           id="path3524"
           style="fill:none;stroke:#000000;stroke-width:5;stroke-linecap:butt;stroke-linejoin:miter;stroke-miterlimit:3.79999995;stroke-opacity:1;stroke-dasharray:none"
           d="m 430,1944 15.5,0 m 2974,0 -15.5,0 m -2974,32 15.5,0 m 2974,0 -15.5,0 m -2974,31.5 31.5,0 m 2958,0 -31.5,0"
           inkscape:connector-curvature="0" />
        <g
           transform="scale(10,10)"
           id="g3526">
          <text
             id="text3528"
             transform="matrix(1,0,0,-1,17.5508,197.415)">
            <tspan
               id="tspan3530"
               sodipodi:role="line"
               y="0"
               x="0 5.5599999 11.12"
               style="font-size:10px;font-variant:normal;font-weight:normal;writing-mode:lr-tb;fill:#000000;fill-opacity:1;fill-rule:nonzero;stroke:none;font-family:Helvetica;-inkscape-font-specification:Helvetica">12m</tspan>
          </text>
        </g>
        <path
           id="path3532"
           style="fill:none;stroke:#000000;stroke-width:5;stroke-linecap:butt;stroke-linejoin:miter;stroke-miterlimit:3.79999995;stroke-opacity:1;stroke-dasharray:none"
           d="m 430,866.5 0,31.5 m 0,1109.5 0,-31.5"
           inkscape:connector-curvature="0" />
        <g
           transform="scale(10,10)"
           id="g3534">
          <text
             id="text3536"
             transform="matrix(0.707107,-0.707107,-0.707107,-0.707107,42.607557,76.326043)">
            <tspan
               id="tspan3538"
               sodipodi:role="line"
               y="0"
               x="0 5.5600019 11.120004 16.680006"
               style="font-size:10.00000286px;font-variant:normal;font-weight:normal;writing-mode:lr-tb;fill:#000000;fill-opacity:1;fill-rule:nonzero;stroke:none;font-family:Helvetica;-inkscape-font-specification:Helvetica">5000</tspan>
          </text>
        </g>
        <path
           id="path3540"
           style="fill:none;stroke:#000000;stroke-width:5;stroke-linecap:butt;stroke-linejoin:miter;stroke-miterlimit:3.79999995;stroke-opacity:1;stroke-dasharray:none"
           d="m 781.5,866.5 0,31.5 m 0,1109.5 0,-31.5"
           inkscape:connector-curvature="0" />
        <g
           transform="scale(10,10)"
           id="g3542">
          <text
             id="text3544"
             transform="matrix(0.707107,-0.707107,-0.707107,-0.707107,77.757557,76.326043)">
            <tspan
               id="tspan3546"
               sodipodi:role="line"
               y="0"
               x="0 5.5600019 11.120004 16.680006"
               style="font-size:10.00000286px;font-variant:normal;font-weight:normal;writing-mode:lr-tb;fill:#000000;fill-opacity:1;fill-rule:nonzero;stroke:none;font-family:Helvetica;-inkscape-font-specification:Helvetica">7000</tspan>
          </text>
        </g>
        <path
           id="path3548"
           style="fill:none;stroke:#000000;stroke-width:5;stroke-linecap:butt;stroke-linejoin:miter;stroke-miterlimit:3.79999995;stroke-opacity:1;stroke-dasharray:none"
           d="m 1133.5,866.5 0,31.5 m 0,1109.5 0,-31.5"
           inkscape:connector-curvature="0" />
        <g
           transform="scale(10,10)"
           id="g3550">
          <text
             id="text3552"
             transform="matrix(0.707107,-0.707107,-0.707107,-0.707107,112.95776,76.326043)">
            <tspan
               id="tspan3554"
               sodipodi:role="line"
               y="0"
               x="0 5.5600019 11.120004 16.680006"
               style="font-size:10.00000286px;font-variant:normal;font-weight:normal;writing-mode:lr-tb;fill:#000000;fill-opacity:1;fill-rule:nonzero;stroke:none;font-family:Helvetica;-inkscape-font-specification:Helvetica">9000</tspan>
          </text>
        </g>
        <path
           id="path3556"
           style="fill:none;stroke:#000000;stroke-width:5;stroke-linecap:butt;stroke-linejoin:miter;stroke-miterlimit:3.79999995;stroke-opacity:1;stroke-dasharray:none"
           d="m 1485,866.5 0,31.5 m 0,1109.5 0,-31.5"
           inkscape:connector-curvature="0" />
        <g
           transform="scale(10,10)"
           id="g3558">
          <text
             id="text3560"
             transform="matrix(0.707107,-0.707107,-0.707107,-0.707107,148.10776,76.326043)">
            <tspan
               id="tspan3562"
               sodipodi:role="line"
               y="0"
               x="0 5.5600019 11.120004 16.680006 22.240007"
               style="font-size:10.00000286px;font-variant:normal;font-weight:normal;writing-mode:lr-tb;fill:#000000;fill-opacity:1;fill-rule:nonzero;stroke:none;font-family:Helvetica;-inkscape-font-specification:Helvetica">11000</tspan>
          </text>
        </g>
        <path
           id="path3564"
           style="fill:none;stroke:#000000;stroke-width:5;stroke-linecap:butt;stroke-linejoin:miter;stroke-miterlimit:3.79999995;stroke-opacity:1;stroke-dasharray:none"
           d="m 1837,866.5 0,31.5 m 0,1109.5 0,-31.5"
           inkscape:connector-curvature="0" />
        <g
           transform="scale(10,10)"
           id="g3566">
          <text
             id="text3568"
             transform="matrix(0.707107,-0.707107,-0.707107,-0.707107,183.30776,76.326043)">
            <tspan
               id="tspan3570"
               sodipodi:role="line"
               y="0"
               x="0 5.5600019 11.120004 16.680006 22.240007"
               style="font-size:10.00000286px;font-variant:normal;font-weight:normal;writing-mode:lr-tb;fill:#000000;fill-opacity:1;fill-rule:nonzero;stroke:none;font-family:Helvetica;-inkscape-font-specification:Helvetica">13000</tspan>
          </text>
        </g>
        <path
           id="path3572"
           style="fill:none;stroke:#000000;stroke-width:5;stroke-linecap:butt;stroke-linejoin:miter;stroke-miterlimit:3.79999995;stroke-opacity:1;stroke-dasharray:none"
           d="m 2188.5,866.5 0,31.5 m 0,1109.5 0,-31.5"
           inkscape:connector-curvature="0" />
        <g
           transform="scale(10,10)"
           id="g3574">
          <text
             id="text3576"
             transform="matrix(0.707107,-0.707107,-0.707107,-0.707107,218.45776,76.326043)">
            <tspan
               id="tspan3578"
               sodipodi:role="line"
               y="0"
               x="0 5.5600019 11.120004 16.680006 22.240007"
               style="font-size:10.00000286px;font-variant:normal;font-weight:normal;writing-mode:lr-tb;fill:#000000;fill-opacity:1;fill-rule:nonzero;stroke:none;font-family:Helvetica;-inkscape-font-specification:Helvetica">15000</tspan>
          </text>
        </g>
        <path
           id="path3580"
           style="fill:none;stroke:#000000;stroke-width:5;stroke-linecap:butt;stroke-linejoin:miter;stroke-miterlimit:3.79999995;stroke-opacity:1;stroke-dasharray:none"
           d="m 2540,866.5 0,31.5 m 0,1109.5 0,-31.5"
           inkscape:connector-curvature="0" />
        <g
           transform="scale(10,10)"
           id="g3582">
          <text
             id="text3584"
             transform="matrix(0.707107,-0.707107,-0.707107,-0.707107,253.60776,76.326043)">
            <tspan
               id="tspan3586"
               sodipodi:role="line"
               y="0"
               x="0 5.5600019 11.120004 16.680006 22.240007"
               style="font-size:10.00000286px;font-variant:normal;font-weight:normal;writing-mode:lr-tb;fill:#000000;fill-opacity:1;fill-rule:nonzero;stroke:none;font-family:Helvetica;-inkscape-font-specification:Helvetica">17000</tspan>
          </text>
        </g>
        <path
           id="path3588"
           style="fill:none;stroke:#000000;stroke-width:5;stroke-linecap:butt;stroke-linejoin:miter;stroke-miterlimit:3.79999995;stroke-opacity:1;stroke-dasharray:none"
           d="m 2892,866.5 0,31.5 m 0,1109.5 0,-31.5"
           inkscape:connector-curvature="0" />
        <g
           transform="scale(10,10)"
           id="g3590">
          <text
             id="text3592"
             transform="matrix(0.707107,-0.707107,-0.707107,-0.707107,288.80776,76.326043)">
            <tspan
               id="tspan3594"
               sodipodi:role="line"
               y="0"
               x="0 5.5600019 11.120004 16.680006 22.240007"
               style="font-size:10.00000286px;font-variant:normal;font-weight:normal;writing-mode:lr-tb;fill:#000000;fill-opacity:1;fill-rule:nonzero;stroke:none;font-family:Helvetica;-inkscape-font-specification:Helvetica">19000</tspan>
          </text>
        </g>
        <path
           id="path3596"
           style="fill:none;stroke:#000000;stroke-width:5;stroke-linecap:butt;stroke-linejoin:miter;stroke-miterlimit:3.79999995;stroke-opacity:1;stroke-dasharray:none"
           d="m 3243.5,866.5 0,31.5 m 0,1109.5 0,-31.5"
           inkscape:connector-curvature="0" />
        <g
           transform="scale(10,10)"
           id="g3598">
          <text
             id="text3600"
             transform="matrix(0.707107,-0.707107,-0.707107,-0.707107,323.95776,76.326043)">
            <tspan
               id="tspan3602"
               sodipodi:role="line"
               y="0"
               x="0 5.5600019 11.120004 16.680006 22.240007"
               style="font-size:10.00000286px;font-variant:normal;font-weight:normal;writing-mode:lr-tb;fill:#000000;fill-opacity:1;fill-rule:nonzero;stroke:none;font-family:Helvetica;-inkscape-font-specification:Helvetica">21000</tspan>
          </text>
        </g>
        <path
           id="path3604"
           style="fill:none;stroke:#000000;stroke-width:5;stroke-linecap:butt;stroke-linejoin:miter;stroke-miterlimit:3.79999995;stroke-opacity:1;stroke-dasharray:none"
           d="m 430,866.5 2989.5,0 0,1141 -2989.5,0 0,-1141 z"
           inkscape:connector-curvature="0" />
        <g
           transform="scale(10,10)"
           id="g3606">
          <text
             id="text3608"
             transform="matrix(0,1,1,0,11.3352,97.8469)">
            <tspan
               id="tspan3610"
               sodipodi:role="line"
               y="0"
               x="0 6.1100001 11.67 20 25.559999 31.120001 33.900002 39.459999 45.02 47.799999 54.470001 59.470001 65.029999 70.029999 75.589996 80.589996 86.150002"
               style="font-size:10px;font-variant:normal;font-weight:normal;writing-mode:lr-tb;fill:#000000;fill-opacity:1;fill-rule:nonzero;stroke:none;font-family:Helvetica;-inkscape-font-specification:Helvetica">Tempo de Execução</tspan>
          </text>
          <text
             id="text3612"
             transform="matrix(1,0,0,-1,152.157,42.8648)">
            <tspan
               id="tspan3614"
               sodipodi:role="line"
               y="0"
               x="0 6.1100001 11.67 20 25.559999 31.120001 36.68 42.240002 45.02 50.580002 56.139999 58.919998 63.919998 69.480003 72.809998 75.029999"
               style="font-size:10px;font-variant:normal;font-weight:normal;writing-mode:lr-tb;fill:#000000;fill-opacity:1;fill-rule:nonzero;stroke:none;font-family:Helvetica;-inkscape-font-specification:Helvetica">Tamanho da série</tspan>
            <tspan
               id="tspan3616"
               sodipodi:role="line"
               y="-146.39999"
               x="-60.633598 -57.8536 -51.183601 -44.513599 -36.733601 -33.953602 -31.173599 -28.3936 -22.833599 -20.0536 -14.4936 -12.2736 -9.4935999 -6.7136002"
               style="font-size:10px;font-variant:normal;font-weight:normal;writing-mode:lr-tb;fill:#000000;fill-opacity:1;fill-rule:nonzero;stroke:none;font-family:Helvetica;-inkscape-font-specification:Helvetica">[SEQ] Intel I7</tspan>
          </text>
        </g>
        <path
           id="path3618"
           style="fill:none;stroke:#000000;stroke-width:10;stroke-linecap:butt;stroke-linejoin:miter;stroke-miterlimit:3.79999995;stroke-opacity:1;stroke-dasharray:none"
           d="m 1570,1926 271.5,0 M 430,1107.5 l 351.5,99.5 352,101.5 351.5,101.5 352,104.5 351.5,101.5 351.5,100 352,104.5 351.5,101.5"
           inkscape:connector-curvature="0" />
        <g
           transform="scale(10,10)"
           id="g3620">
          <text
             id="text3622"
             transform="matrix(1,0,0,-1,89.8637,179.265)">
            <tspan
               id="tspan3624"
               sodipodi:role="line"
               y="0"
               x="0 2.78 10.56 18.889999 25.559999 28.34 31.120001 33.900002 39.459999 42.240002 47.799999 50.02 52.799999 55.580002"
               style="font-size:10px;font-variant:normal;font-weight:normal;writing-mode:lr-tb;fill:#000000;fill-opacity:1;fill-rule:nonzero;stroke:none;font-family:Helvetica;-inkscape-font-specification:Helvetica">[OMP] Intel I5</tspan>
          </text>
        </g>
        <path
           id="path3626"
           style="fill:none;stroke:#0000ff;stroke-width:10;stroke-linecap:butt;stroke-linejoin:miter;stroke-miterlimit:3.79999995;stroke-opacity:1;stroke-dasharray:none"
           d="m 1570,1826 271.5,0 M 430,957 l 351.5,44 352,33.5 351.5,44.5 352,38 351.5,31.5 351.5,46 352,30 351.5,36.5"
           inkscape:connector-curvature="0" />
        <g
           transform="scale(10,10)"
           id="g3628">
          <text
             id="text3630"
             transform="matrix(1,0,0,-1,89.8637,169.265)">
            <tspan
               id="tspan3632"
               sodipodi:role="line"
               y="0"
               x="0 2.78 10.56 18.889999 25.559999 28.34 31.120001 33.900002 39.459999 42.240002 47.799999 50.02 52.799999 55.580002"
               style="font-size:10px;font-variant:normal;font-weight:normal;writing-mode:lr-tb;fill:#000000;fill-opacity:1;fill-rule:nonzero;stroke:none;font-family:Helvetica;-inkscape-font-specification:Helvetica">[OMP] Intel I7</tspan>
          </text>
        </g>
        <path
           id="path3634"
           style="fill:none;stroke:#ff0000;stroke-width:10;stroke-linecap:butt;stroke-linejoin:miter;stroke-miterlimit:3.79999995;stroke-opacity:1;stroke-dasharray:none"
           d="m 1570,1726 271.5,0 M 430,941 l 351.5,31.5 352,33.5 351.5,31.5 352,33.5 351.5,36.5 351.5,28.5 352,38 351.5,33"
           inkscape:connector-curvature="0" />
        <g
           transform="scale(10,10)"
           id="g3636">
          <text
             id="text3638"
             transform="matrix(1,0,0,-1,58.7543,159.265)">
            <tspan
               id="tspan3640"
               sodipodi:role="line"
               y="0"
               x="0 2.78 10.56 18.889999 25.559999 28.34 31.120001 37.790001 46.119999 53.34 56.119999 63.900002 69.459999 72.239998 77.800003 81.129997 86.690002"
               style="font-size:10px;font-variant:normal;font-weight:normal;writing-mode:lr-tb;fill:#000000;fill-opacity:1;fill-rule:nonzero;stroke:none;font-family:Helvetica;-inkscape-font-specification:Helvetica">[OMP] AMD Opteron</tspan>
          </text>
        </g>
        <path
           id="path3642"
           style="fill:none;stroke:#00ff00;stroke-width:10;stroke-linecap:butt;stroke-linejoin:miter;stroke-miterlimit:3.79999995;stroke-opacity:1;stroke-dasharray:none"
           d="m 1570,1626 271.5,0 M 430,939.5 l 351.5,35 352,33 351.5,30 352,30.5 351.5,36 351.5,32 352,30 351.5,28.5"
           inkscape:connector-curvature="0" />
        <path
           id="path3644"
           style="fill:none;stroke:#000000;stroke-width:5;stroke-linecap:butt;stroke-linejoin:miter;stroke-miterlimit:3.79999995;stroke-opacity:1;stroke-dasharray:none"
           d="m 430,866.5 2989.5,0 0,1141 -2989.5,0 0,-1141 z"
           inkscape:connector-curvature="0" />
      </g>
    </g>
    <g
       transform="matrix(1.284898,0,0,-1.284898,-5.043484,488.42038)"
       inkscape:label="ink_ext_XXXXXX"
       id="g3765"
       inkscape:export-filename="/home/bruno/Materias_UFPR/TG_CUDA/Artigo_TG/Imagens/graficos_lanczos/lanczos_omp.png"
       inkscape:export-xdpi="300"
       inkscape:export-ydpi="300">
      <g
         transform="scale(0.1,0.1)"
         id="g3767">
        <path
           id="path3769"
           style="fill:none;stroke:#000000;stroke-width:5;stroke-linecap:butt;stroke-linejoin:miter;stroke-miterlimit:3.79999995;stroke-opacity:1;stroke-dasharray:none"
           d="m 490,878.5 31.5,0 m 2898,0 -31.5,0"
           inkscape:connector-curvature="0" />
        <g
           transform="scale(10,10)"
           id="g3771">
          <text
             id="text3773"
             transform="matrix(1,0,0,-1,37.4405,84.5148)">
            <tspan
               id="tspan3775"
               y="0"
               x="0"
               style="font-size:10px;font-variant:normal;font-weight:normal;writing-mode:lr-tb;fill:#000000;fill-opacity:1;fill-rule:nonzero;stroke:none;font-family:Helvetica;-inkscape-font-specification:Helvetica">1</tspan>
          </text>
        </g>
        <path
           id="path3777"
           style="fill:none;stroke:#000000;stroke-width:5;stroke-linecap:butt;stroke-linejoin:miter;stroke-miterlimit:3.79999995;stroke-opacity:1;stroke-dasharray:none"
           d="m 490,1102 31.5,0 m 2898,0 -31.5,0"
           inkscape:connector-curvature="0" />
        <g
           transform="scale(10,10)"
           id="g3779">
          <text
             id="text3781"
             transform="matrix(1,0,0,-1,29.1011,106.865)">
            <tspan
               id="tspan3783"
               sodipodi:role="line"
               y="0"
               x="0 5.5599999 8.3400002"
               style="font-size:10px;font-variant:normal;font-weight:normal;writing-mode:lr-tb;fill:#000000;fill-opacity:1;fill-rule:nonzero;stroke:none;font-family:Helvetica;-inkscape-font-specification:Helvetica">1.5</tspan>
          </text>
        </g>
        <path
           id="path3785"
           style="fill:none;stroke:#000000;stroke-width:5;stroke-linecap:butt;stroke-linejoin:miter;stroke-miterlimit:3.79999995;stroke-opacity:1;stroke-dasharray:none"
           d="m 490,1325.5 31.5,0 m 2898,0 -31.5,0"
           inkscape:connector-curvature="0" />
        <g
           transform="scale(10,10)"
           id="g3787">
          <text
             id="text3789"
             transform="matrix(1,0,0,-1,37.4405,129.215)">
            <tspan
               id="tspan3791"
               y="0"
               x="0"
               style="font-size:10px;font-variant:normal;font-weight:normal;writing-mode:lr-tb;fill:#000000;fill-opacity:1;fill-rule:nonzero;stroke:none;font-family:Helvetica;-inkscape-font-specification:Helvetica">2</tspan>
          </text>
        </g>
        <path
           id="path3793"
           style="fill:none;stroke:#000000;stroke-width:5;stroke-linecap:butt;stroke-linejoin:miter;stroke-miterlimit:3.79999995;stroke-opacity:1;stroke-dasharray:none"
           d="m 490,1548.5 31.5,0 m 2898,0 -31.5,0"
           inkscape:connector-curvature="0" />
        <g
           transform="scale(10,10)"
           id="g3795">
          <text
             id="text3797"
             transform="matrix(1,0,0,-1,29.1011,151.515)">
            <tspan
               id="tspan3799"
               sodipodi:role="line"
               y="0"
               x="0 5.5599999 8.3400002"
               style="font-size:10px;font-variant:normal;font-weight:normal;writing-mode:lr-tb;fill:#000000;fill-opacity:1;fill-rule:nonzero;stroke:none;font-family:Helvetica;-inkscape-font-specification:Helvetica">2.5</tspan>
          </text>
        </g>
        <path
           id="path3801"
           style="fill:none;stroke:#000000;stroke-width:5;stroke-linecap:butt;stroke-linejoin:miter;stroke-miterlimit:3.79999995;stroke-opacity:1;stroke-dasharray:none"
           d="m 490,1772 31.5,0 m 2898,0 -31.5,0"
           inkscape:connector-curvature="0" />
        <g
           transform="scale(10,10)"
           id="g3803">
          <text
             id="text3805"
             transform="matrix(1,0,0,-1,37.4405,173.865)">
            <tspan
               id="tspan3807"
               y="0"
               x="0"
               style="font-size:10px;font-variant:normal;font-weight:normal;writing-mode:lr-tb;fill:#000000;fill-opacity:1;fill-rule:nonzero;stroke:none;font-family:Helvetica;-inkscape-font-specification:Helvetica">3</tspan>
          </text>
        </g>
        <path
           id="path3809"
           style="fill:none;stroke:#000000;stroke-width:5;stroke-linecap:butt;stroke-linejoin:miter;stroke-miterlimit:3.79999995;stroke-opacity:1;stroke-dasharray:none"
           d="m 490,1995.5 31.5,0 m 2898,0 -31.5,0"
           inkscape:connector-curvature="0" />
        <g
           transform="scale(10,10)"
           id="g3811">
          <text
             id="text3813"
             transform="matrix(1,0,0,-1,29.1011,196.215)">
            <tspan
               id="tspan3815"
               sodipodi:role="line"
               y="0"
               x="0 5.5599999 8.3400002"
               style="font-size:10px;font-variant:normal;font-weight:normal;writing-mode:lr-tb;fill:#000000;fill-opacity:1;fill-rule:nonzero;stroke:none;font-family:Helvetica;-inkscape-font-specification:Helvetica">3.5</tspan>
          </text>
        </g>
        <path
           id="path3817"
           style="fill:none;stroke:#000000;stroke-width:5;stroke-linecap:butt;stroke-linejoin:miter;stroke-miterlimit:3.79999995;stroke-opacity:1;stroke-dasharray:none"
           d="m 490,878.5 0,31.5 m 0,1085.5 0,-31.5"
           inkscape:connector-curvature="0" />
        <g
           transform="scale(10,10)"
           id="g3819">
          <text
             id="text3821"
             transform="matrix(0.707107,-0.707107,-0.707107,-0.707107,48.607557,77.526043)">
            <tspan
               id="tspan3823"
               sodipodi:role="line"
               y="0"
               x="0 5.5600019 11.120004 16.680006"
               style="font-size:10.00000286px;font-variant:normal;font-weight:normal;writing-mode:lr-tb;fill:#000000;fill-opacity:1;fill-rule:nonzero;stroke:none;font-family:Helvetica;-inkscape-font-specification:Helvetica">5000</tspan>
          </text>
        </g>
        <path
           id="path3825"
           style="fill:none;stroke:#000000;stroke-width:5;stroke-linecap:butt;stroke-linejoin:miter;stroke-miterlimit:3.79999995;stroke-opacity:1;stroke-dasharray:none"
           d="m 834.5,878.5 0,31.5 m 0,1085.5 0,-31.5"
           inkscape:connector-curvature="0" />
        <g
           transform="scale(10,10)"
           id="g3827">
          <text
             id="text3829"
             transform="matrix(0.707107,-0.707107,-0.707107,-0.707107,83.057557,77.526043)">
            <tspan
               id="tspan3831"
               sodipodi:role="line"
               y="0"
               x="0 5.5600019 11.120004 16.680006"
               style="font-size:10.00000286px;font-variant:normal;font-weight:normal;writing-mode:lr-tb;fill:#000000;fill-opacity:1;fill-rule:nonzero;stroke:none;font-family:Helvetica;-inkscape-font-specification:Helvetica">7000</tspan>
          </text>
        </g>
        <path
           id="path3833"
           style="fill:none;stroke:#000000;stroke-width:5;stroke-linecap:butt;stroke-linejoin:miter;stroke-miterlimit:3.79999995;stroke-opacity:1;stroke-dasharray:none"
           d="m 1179.5,878.5 0,31.5 m 0,1085.5 0,-31.5"
           inkscape:connector-curvature="0" />
        <g
           transform="scale(10,10)"
           id="g3835">
          <text
             id="text3837"
             transform="matrix(0.707107,-0.707107,-0.707107,-0.707107,117.55776,77.526043)">
            <tspan
               id="tspan3839"
               sodipodi:role="line"
               y="0"
               x="0 5.5600019 11.120004 16.680006"
               style="font-size:10.00000286px;font-variant:normal;font-weight:normal;writing-mode:lr-tb;fill:#000000;fill-opacity:1;fill-rule:nonzero;stroke:none;font-family:Helvetica;-inkscape-font-specification:Helvetica">9000</tspan>
          </text>
        </g>
        <path
           id="path3841"
           style="fill:none;stroke:#000000;stroke-width:5;stroke-linecap:butt;stroke-linejoin:miter;stroke-miterlimit:3.79999995;stroke-opacity:1;stroke-dasharray:none"
           d="m 1524,878.5 0,31.5 m 0,1085.5 0,-31.5"
           inkscape:connector-curvature="0" />
        <g
           transform="scale(10,10)"
           id="g3843">
          <text
             id="text3845"
             transform="matrix(0.707107,-0.707107,-0.707107,-0.707107,152.00776,77.526043)">
            <tspan
               id="tspan3847"
               sodipodi:role="line"
               y="0"
               x="0 5.5600019 11.120004 16.680006 22.240007"
               style="font-size:10.00000286px;font-variant:normal;font-weight:normal;writing-mode:lr-tb;fill:#000000;fill-opacity:1;fill-rule:nonzero;stroke:none;font-family:Helvetica;-inkscape-font-specification:Helvetica">11000</tspan>
          </text>
        </g>
        <path
           id="path3849"
           style="fill:none;stroke:#000000;stroke-width:5;stroke-linecap:butt;stroke-linejoin:miter;stroke-miterlimit:3.79999995;stroke-opacity:1;stroke-dasharray:none"
           d="m 1868.5,878.5 0,31.5 m 0,1085.5 0,-31.5"
           inkscape:connector-curvature="0" />
        <g
           transform="scale(10,10)"
           id="g3851">
          <text
             id="text3853"
             transform="matrix(0.707107,-0.707107,-0.707107,-0.707107,186.45776,77.526043)">
            <tspan
               id="tspan3855"
               sodipodi:role="line"
               y="0"
               x="0 5.5600019 11.120004 16.680006 22.240007"
               style="font-size:10.00000286px;font-variant:normal;font-weight:normal;writing-mode:lr-tb;fill:#000000;fill-opacity:1;fill-rule:nonzero;stroke:none;font-family:Helvetica;-inkscape-font-specification:Helvetica">13000</tspan>
          </text>
        </g>
        <path
           id="path3857"
           style="fill:none;stroke:#000000;stroke-width:5;stroke-linecap:butt;stroke-linejoin:miter;stroke-miterlimit:3.79999995;stroke-opacity:1;stroke-dasharray:none"
           d="m 2213,878.5 0,31.5 m 0,1085.5 0,-31.5"
           inkscape:connector-curvature="0" />
        <g
           transform="scale(10,10)"
           id="g3859">
          <text
             id="text3861"
             transform="matrix(0.707107,-0.707107,-0.707107,-0.707107,220.90776,77.526043)">
            <tspan
               id="tspan3863"
               sodipodi:role="line"
               y="0"
               x="0 5.5600019 11.120004 16.680006 22.240007"
               style="font-size:10.00000286px;font-variant:normal;font-weight:normal;writing-mode:lr-tb;fill:#000000;fill-opacity:1;fill-rule:nonzero;stroke:none;font-family:Helvetica;-inkscape-font-specification:Helvetica">15000</tspan>
          </text>
        </g>
        <path
           id="path3865"
           style="fill:none;stroke:#000000;stroke-width:5;stroke-linecap:butt;stroke-linejoin:miter;stroke-miterlimit:3.79999995;stroke-opacity:1;stroke-dasharray:none"
           d="m 2558,878.5 0,31.5 m 0,1085.5 0,-31.5"
           inkscape:connector-curvature="0" />
        <g
           transform="scale(10,10)"
           id="g3867">
          <text
             id="text3869"
             transform="matrix(0.707107,-0.707107,-0.707107,-0.707107,255.40776,77.526043)">
            <tspan
               id="tspan3871"
               sodipodi:role="line"
               y="0"
               x="0 5.5600019 11.120004 16.680006 22.240007"
               style="font-size:10.00000286px;font-variant:normal;font-weight:normal;writing-mode:lr-tb;fill:#000000;fill-opacity:1;fill-rule:nonzero;stroke:none;font-family:Helvetica;-inkscape-font-specification:Helvetica">17000</tspan>
          </text>
        </g>
        <path
           id="path3873"
           style="fill:none;stroke:#000000;stroke-width:5;stroke-linecap:butt;stroke-linejoin:miter;stroke-miterlimit:3.79999995;stroke-opacity:1;stroke-dasharray:none"
           d="m 2902.5,878.5 0,31.5 m 0,1085.5 0,-31.5"
           inkscape:connector-curvature="0" />
        <g
           transform="scale(10,10)"
           id="g3875">
          <text
             id="text3877"
             transform="matrix(0.707107,-0.707107,-0.707107,-0.707107,289.85776,77.526043)">
            <tspan
               id="tspan3879"
               sodipodi:role="line"
               y="0"
               x="0 5.5600019 11.120004 16.680006 22.240007"
               style="font-size:10.00000286px;font-variant:normal;font-weight:normal;writing-mode:lr-tb;fill:#000000;fill-opacity:1;fill-rule:nonzero;stroke:none;font-family:Helvetica;-inkscape-font-specification:Helvetica">19000</tspan>
          </text>
        </g>
        <path
           id="path3881"
           style="fill:none;stroke:#000000;stroke-width:5;stroke-linecap:butt;stroke-linejoin:miter;stroke-miterlimit:3.79999995;stroke-opacity:1;stroke-dasharray:none"
           d="m 3247,878.5 0,31.5 m 0,1085.5 0,-31.5"
           inkscape:connector-curvature="0" />
        <g
           transform="scale(10,10)"
           id="g3883">
          <text
             id="text3885"
             transform="matrix(0.707107,-0.707107,-0.707107,-0.707107,324.30776,77.526043)">
            <tspan
               id="tspan3887"
               sodipodi:role="line"
               y="0"
               x="0 5.5600019 11.120004 16.680006 22.240007"
               style="font-size:10.00000286px;font-variant:normal;font-weight:normal;writing-mode:lr-tb;fill:#000000;fill-opacity:1;fill-rule:nonzero;stroke:none;font-family:Helvetica;-inkscape-font-specification:Helvetica">21000</tspan>
          </text>
        </g>
        <path
           id="path3889"
           style="fill:none;stroke:#000000;stroke-width:5;stroke-linecap:butt;stroke-linejoin:miter;stroke-miterlimit:3.79999995;stroke-opacity:1;stroke-dasharray:none"
           d="m 490,878.5 2929.5,0 0,1117 -2929.5,0 0,-1117 z"
           inkscape:connector-curvature="0" />
        <g
           transform="scale(10,10)"
           id="g3891">
          <text
             id="text3893"
             transform="matrix(0,1,1,0,11.3352,123.686)">
            <tspan
               id="tspan3895"
               sodipodi:role="line"
               y="0"
               x="0 6.6700001 12.23 17.790001 23.35 28.91 34.470001"
               style="font-size:10px;font-variant:normal;font-weight:normal;writing-mode:lr-tb;fill:#000000;fill-opacity:1;fill-rule:nonzero;stroke:none;font-family:Helvetica;-inkscape-font-specification:Helvetica">Speedup</tspan>
          </text>
          <text
             id="text3897"
             transform="matrix(1,0,0,-1,155.157,44.0648)">
            <tspan
               id="tspan3899"
               sodipodi:role="line"
               y="0"
               x="0 6.1100001 11.67 20 25.559999 31.120001 36.68 42.240002 45.02 50.580002 56.139999 58.919998 63.919998 69.480003 72.809998 75.029999"
               style="font-size:10px;font-variant:normal;font-weight:normal;writing-mode:lr-tb;fill:#000000;fill-opacity:1;fill-rule:nonzero;stroke:none;font-family:Helvetica;-inkscape-font-specification:Helvetica">Tamanho da série</tspan>
            <tspan
               id="tspan3901"
               sodipodi:role="line"
               y="-144"
               x="-57.633598 -54.8536 -48.183601 -41.513599 -33.733601 -30.9536 -28.173599 -25.3936 -19.833599 -17.0536 -11.4936 -9.2735996 -6.4935999 -3.7135999"
               style="font-size:10px;font-variant:normal;font-weight:normal;writing-mode:lr-tb;fill:#000000;fill-opacity:1;fill-rule:nonzero;stroke:none;font-family:Helvetica;-inkscape-font-specification:Helvetica">[SEQ] Intel I7</tspan>
          </text>
        </g>
        <path
           id="path3903"
           style="fill:none;stroke:#000000;stroke-width:10;stroke-linecap:butt;stroke-linejoin:miter;stroke-miterlimit:3.79999995;stroke-opacity:1;stroke-dasharray:none"
           d="m 1630,1914 271.5,0 M 490,878.5 l 2757,0"
           inkscape:connector-curvature="0" />
        <g
           transform="scale(10,10)"
           id="g3905">
          <text
             id="text3907"
             transform="matrix(1,0,0,-1,95.8637,178.065)">
            <tspan
               id="tspan3909"
               sodipodi:role="line"
               y="0"
               x="0 2.78 10.56 18.889999 25.559999 28.34 31.120001 33.900002 39.459999 42.240002 47.799999 50.02 52.799999 55.580002"
               style="font-size:10px;font-variant:normal;font-weight:normal;writing-mode:lr-tb;fill:#000000;fill-opacity:1;fill-rule:nonzero;stroke:none;font-family:Helvetica;-inkscape-font-specification:Helvetica">[OMP] Intel I5</tspan>
          </text>
        </g>
        <path
           id="path3911"
           style="fill:none;stroke:#0000ff;stroke-width:10;stroke-linecap:butt;stroke-linejoin:miter;stroke-miterlimit:3.79999995;stroke-opacity:1;stroke-dasharray:none"
           d="m 1630,1814 271.5,0 M 490,1610 l 344.5,-51.5 345,41 344.5,-26 344.5,17 344.5,22.5 345,-24 344.5,29 344.5,8"
           inkscape:connector-curvature="0" />
        <g
           transform="scale(10,10)"
           id="g3913">
          <text
             id="text3915"
             transform="matrix(1,0,0,-1,95.8637,168.065)">
            <tspan
               id="tspan3917"
               sodipodi:role="line"
               y="0"
               x="0 2.78 10.56 18.889999 25.559999 28.34 31.120001 33.900002 39.459999 42.240002 47.799999 50.02 52.799999 55.580002"
               style="font-size:10px;font-variant:normal;font-weight:normal;writing-mode:lr-tb;fill:#000000;fill-opacity:1;fill-rule:nonzero;stroke:none;font-family:Helvetica;-inkscape-font-specification:Helvetica">[OMP] Intel I7</tspan>
          </text>
        </g>
        <path
           id="path3919"
           style="fill:none;stroke:#ff0000;stroke-width:10;stroke-linecap:butt;stroke-linejoin:miter;stroke-miterlimit:3.79999995;stroke-opacity:1;stroke-dasharray:none"
           d="m 1630,1714 271.5,0 M 490,1878.5 l 344.5,-24 345,-6.5 344.5,-3 344.5,2 344.5,-28 345,18.5 344.5,-22 344.5,-4.5"
           inkscape:connector-curvature="0" />
        <g
           transform="scale(10,10)"
           id="g3921">
          <text
             id="text3923"
             transform="matrix(1,0,0,-1,64.7543,158.065)">
            <tspan
               id="tspan3925"
               sodipodi:role="line"
               y="0"
               x="0 2.78 10.56 18.889999 25.559999 28.34 31.120001 37.790001 46.119999 53.34 56.119999 63.900002 69.459999 72.239998 77.800003 81.129997 86.690002"
               style="font-size:10px;font-variant:normal;font-weight:normal;writing-mode:lr-tb;fill:#000000;fill-opacity:1;fill-rule:nonzero;stroke:none;font-family:Helvetica;-inkscape-font-specification:Helvetica">[OMP] AMD Opteron</tspan>
          </text>
        </g>
        <path
           id="path3927"
           style="fill:none;stroke:#00ff00;stroke-width:10;stroke-linecap:butt;stroke-linejoin:miter;stroke-miterlimit:3.79999995;stroke-opacity:1;stroke-dasharray:none"
           d="m 1630,1614 271.5,0 M 490,1881.5 l 344.5,-39 345,-12.5 344.5,14 344.5,22.5 344.5,-31.5 345,1.5 344.5,16.5 344.5,13.5"
           inkscape:connector-curvature="0" />
        <path
           id="path3929"
           style="fill:none;stroke:#000000;stroke-width:5;stroke-linecap:butt;stroke-linejoin:miter;stroke-miterlimit:3.79999995;stroke-opacity:1;stroke-dasharray:none"
           d="m 490,878.5 2929.5,0 0,1117 -2929.5,0 0,-1117 z"
           inkscape:connector-curvature="0" />
      </g>
    </g>
  </g>
</svg>
