<?xml version="1.0" encoding="UTF-8" standalone="no"?>
<!-- Created with Inkscape (http://www.inkscape.org/) -->

<svg
   xmlns:dc="http://purl.org/dc/elements/1.1/"
   xmlns:cc="http://creativecommons.org/ns#"
   xmlns:rdf="http://www.w3.org/1999/02/22-rdf-syntax-ns#"
   xmlns:svg="http://www.w3.org/2000/svg"
   xmlns="http://www.w3.org/2000/svg"
   xmlns:sodipodi="http://sodipodi.sourceforge.net/DTD/sodipodi-0.dtd"
   xmlns:inkscape="http://www.inkscape.org/namespaces/inkscape"
   width="442.91336"
   height="275.0177"
   id="svg7519"
   version="1.1"
   inkscape:version="0.48.3.1 r9886"
   sodipodi:docname="edicao_mcarlo_omp-threads.svg">
  <defs
     id="defs7521" />
  <sodipodi:namedview
     id="base"
     pagecolor="#ffffff"
     bordercolor="#666666"
     borderopacity="1.0"
     inkscape:pageopacity="0.0"
     inkscape:pageshadow="2"
     inkscape:zoom="1.4"
     inkscape:cx="62.814933"
     inkscape:cy="164.48539"
     inkscape:document-units="px"
     inkscape:current-layer="layer1"
     showgrid="false"
     fit-margin-top="0"
     fit-margin-left="0"
     fit-margin-right="0"
     fit-margin-bottom="0"
     inkscape:window-width="1600"
     inkscape:window-height="876"
     inkscape:window-x="0"
     inkscape:window-y="24"
     inkscape:window-maximized="1" />
  <metadata
     id="metadata7524">
    <rdf:RDF>
      <cc:Work
         rdf:about="">
        <dc:format>image/svg+xml</dc:format>
        <dc:type
           rdf:resource="http://purl.org/dc/dcmitype/StillImage" />
        <dc:title></dc:title>
      </cc:Work>
    </rdf:RDF>
  </metadata>
  <g
     inkscape:label="Camada 1"
     inkscape:groupmode="layer"
     id="layer1"
     transform="translate(-544.82281,-326.98606)">
    <g
       transform="matrix(1.2713455,0,0,-1.2713455,539.67996,620.35539)"
       inkscape:label="ink_ext_XXXXXX"
       id="g3101"
       inkscape:export-filename="/home/bruno/Materias_UFPR/TG_CUDA/Artigo_TG/Imagens/graficos_mcarlo/mcarlo_omp-threads.png"
       inkscape:export-xdpi="300"
       inkscape:export-ydpi="300">
      <g
         transform="scale(0.1,0.1)"
         id="g3103">
        <path
           id="path3105"
           style="fill:none;stroke:#000000;stroke-width:5;stroke-linecap:butt;stroke-linejoin:miter;stroke-miterlimit:3.79999995;stroke-opacity:1;stroke-dasharray:none"
           d="m 490,731 31.5,0 m 2836.5,0 -31.5,0"
           inkscape:connector-curvature="0" />
        <g
           transform="scale(10,10)"
           id="g3107">
          <text
             id="text3109"
             transform="matrix(1,0,0,-1,29.1105,69.7648)">
            <tspan
               id="tspan3111"
               sodipodi:role="line"
               y="0"
               x="0 5.5599999"
               style="font-size:10px;font-variant:normal;font-weight:normal;writing-mode:lr-tb;fill:#000000;fill-opacity:1;fill-rule:nonzero;stroke:none;font-family:Helvetica;-inkscape-font-specification:Helvetica">0m</tspan>
          </text>
        </g>
        <path
           id="path3113"
           style="fill:none;stroke:#000000;stroke-width:5;stroke-linecap:butt;stroke-linejoin:miter;stroke-miterlimit:3.79999995;stroke-opacity:1;stroke-dasharray:none"
           d="m 490,987.5 31.5,0 m 2836.5,0 -31.5,0"
           inkscape:connector-curvature="0" />
        <g
           transform="scale(10,10)"
           id="g3115">
          <text
             id="text3117"
             transform="matrix(1,0,0,-1,23.5508,95.4148)">
            <tspan
               id="tspan3119"
               sodipodi:role="line"
               y="0"
               x="0 5.5599999 11.12"
               style="font-size:10px;font-variant:normal;font-weight:normal;writing-mode:lr-tb;fill:#000000;fill-opacity:1;fill-rule:nonzero;stroke:none;font-family:Helvetica;-inkscape-font-specification:Helvetica">20m</tspan>
          </text>
        </g>
        <path
           id="path3121"
           style="fill:none;stroke:#000000;stroke-width:5;stroke-linecap:butt;stroke-linejoin:miter;stroke-miterlimit:3.79999995;stroke-opacity:1;stroke-dasharray:none"
           d="m 490,1244 31.5,0 m 2836.5,0 -31.5,0"
           inkscape:connector-curvature="0" />
        <g
           transform="scale(10,10)"
           id="g3123">
          <text
             id="text3125"
             transform="matrix(1,0,0,-1,23.5508,121.065)">
            <tspan
               id="tspan3127"
               sodipodi:role="line"
               y="0"
               x="0 5.5599999 11.12"
               style="font-size:10px;font-variant:normal;font-weight:normal;writing-mode:lr-tb;fill:#000000;fill-opacity:1;fill-rule:nonzero;stroke:none;font-family:Helvetica;-inkscape-font-specification:Helvetica">40m</tspan>
          </text>
        </g>
        <path
           id="path3129"
           style="fill:none;stroke:#000000;stroke-width:5;stroke-linecap:butt;stroke-linejoin:miter;stroke-miterlimit:3.79999995;stroke-opacity:1;stroke-dasharray:none"
           d="m 490,1500.5 31.5,0 m 2836.5,0 -31.5,0"
           inkscape:connector-curvature="0" />
        <g
           transform="scale(10,10)"
           id="g3131">
          <text
             id="text3133"
             transform="matrix(1,0,0,-1,23.5508,146.715)">
            <tspan
               id="tspan3135"
               sodipodi:role="line"
               y="0"
               x="0 5.5599999 11.12"
               style="font-size:10px;font-variant:normal;font-weight:normal;writing-mode:lr-tb;fill:#000000;fill-opacity:1;fill-rule:nonzero;stroke:none;font-family:Helvetica;-inkscape-font-specification:Helvetica">60m</tspan>
          </text>
        </g>
        <path
           id="path3137"
           style="fill:none;stroke:#000000;stroke-width:5;stroke-linecap:butt;stroke-linejoin:miter;stroke-miterlimit:3.79999995;stroke-opacity:1;stroke-dasharray:none"
           d="m 490,1757 31.5,0 m 2836.5,0 -31.5,0"
           inkscape:connector-curvature="0" />
        <g
           transform="scale(10,10)"
           id="g3139">
          <text
             id="text3141"
             transform="matrix(1,0,0,-1,23.5508,172.365)">
            <tspan
               id="tspan3143"
               sodipodi:role="line"
               y="0"
               x="0 5.5599999 11.12"
               style="font-size:10px;font-variant:normal;font-weight:normal;writing-mode:lr-tb;fill:#000000;fill-opacity:1;fill-rule:nonzero;stroke:none;font-family:Helvetica;-inkscape-font-specification:Helvetica">80m</tspan>
          </text>
        </g>
        <path
           id="path3145"
           style="fill:none;stroke:#000000;stroke-width:5;stroke-linecap:butt;stroke-linejoin:miter;stroke-miterlimit:3.79999995;stroke-opacity:1;stroke-dasharray:none"
           d="m 490,2013.5 31.5,0 m 2836.5,0 -31.5,0"
           inkscape:connector-curvature="0" />
        <g
           transform="scale(10,10)"
           id="g3147">
          <text
             id="text3149"
             transform="matrix(1,0,0,-1,17.991,198.015)">
            <tspan
               id="tspan3151"
               sodipodi:role="line"
               y="0"
               x="0 5.5599999 11.12 16.68"
               style="font-size:10px;font-variant:normal;font-weight:normal;writing-mode:lr-tb;fill:#000000;fill-opacity:1;fill-rule:nonzero;stroke:none;font-family:Helvetica;-inkscape-font-specification:Helvetica">100m</tspan>
          </text>
        </g>
        <path
           id="path3153"
           style="fill:none;stroke:#000000;stroke-width:5;stroke-linecap:butt;stroke-linejoin:miter;stroke-miterlimit:3.79999995;stroke-opacity:1;stroke-dasharray:none"
           d="m 490,2270 31.5,0 m 2836.5,0 -31.5,0"
           inkscape:connector-curvature="0" />
        <g
           transform="scale(10,10)"
           id="g3155">
          <text
             id="text3157"
             transform="matrix(1,0,0,-1,17.991,223.665)">
            <tspan
               id="tspan3159"
               sodipodi:role="line"
               y="0"
               x="0 5.5599999 11.12 16.68"
               style="font-size:10px;font-variant:normal;font-weight:normal;writing-mode:lr-tb;fill:#000000;fill-opacity:1;fill-rule:nonzero;stroke:none;font-family:Helvetica;-inkscape-font-specification:Helvetica">120m</tspan>
          </text>
        </g>
        <path
           id="path3161"
           style="fill:none;stroke:#000000;stroke-width:5;stroke-linecap:butt;stroke-linejoin:miter;stroke-miterlimit:3.79999995;stroke-opacity:1;stroke-dasharray:none"
           d="m 490,731 0,31.5 m 0,1507.5 0,-31.5"
           inkscape:connector-curvature="0" />
        <g
           transform="scale(10,10)"
           id="g3163">
          <text
             id="text3165"
             transform="matrix(0.707107,-0.707107,-0.707107,-0.707107,46.6418,64.7418)">
            <tspan
               id="tspan3167"
               sodipodi:role="line"
               y="0"
               x="0 5.5600019 11.120004 16.680006 22.240007 25.020008 30.580009 36.140011 41.700012"
               style="font-size:10.00000286px;font-variant:normal;font-weight:normal;writing-mode:lr-tb;fill:#000000;fill-opacity:1;fill-rule:nonzero;stroke:none;font-family:Helvetica;-inkscape-font-specification:Helvetica">1000/1000</tspan>
          </text>
        </g>
        <path
           id="path3169"
           style="fill:none;stroke:#000000;stroke-width:5;stroke-linecap:butt;stroke-linejoin:miter;stroke-miterlimit:3.79999995;stroke-opacity:1;stroke-dasharray:none"
           d="m 681,731 0,31.5 m 0,1507.5 0,-31.5"
           inkscape:connector-curvature="0" />
        <g
           transform="scale(10,10)"
           id="g3171">
          <text
             id="text3173"
             transform="matrix(0.707107,-0.707107,-0.707107,-0.707107,65.7418,64.7418)">
            <tspan
               id="tspan3175"
               sodipodi:role="line"
               y="0"
               x="0 5.5600019 11.120004 16.680006 22.240007 25.020008 30.580009 36.140011 41.700012"
               style="font-size:10.00000286px;font-variant:normal;font-weight:normal;writing-mode:lr-tb;fill:#000000;fill-opacity:1;fill-rule:nonzero;stroke:none;font-family:Helvetica;-inkscape-font-specification:Helvetica">1000/3000</tspan>
          </text>
        </g>
        <path
           id="path3177"
           style="fill:none;stroke:#000000;stroke-width:5;stroke-linecap:butt;stroke-linejoin:miter;stroke-miterlimit:3.79999995;stroke-opacity:1;stroke-dasharray:none"
           d="m 872.5,731 0,31.5 m 0,1507.5 0,-31.5"
           inkscape:connector-curvature="0" />
        <g
           transform="scale(10,10)"
           id="g3179">
          <text
             id="text3181"
             transform="matrix(0.707107,-0.707107,-0.707107,-0.707107,84.8918,64.7418)">
            <tspan
               id="tspan3183"
               sodipodi:role="line"
               y="0"
               x="0 5.5600019 11.120004 16.680006 22.240007 25.020008 30.580009 36.140011 41.700012"
               style="font-size:10.00000286px;font-variant:normal;font-weight:normal;writing-mode:lr-tb;fill:#000000;fill-opacity:1;fill-rule:nonzero;stroke:none;font-family:Helvetica;-inkscape-font-specification:Helvetica">1000/5000</tspan>
          </text>
        </g>
        <path
           id="path3185"
           style="fill:none;stroke:#000000;stroke-width:5;stroke-linecap:butt;stroke-linejoin:miter;stroke-miterlimit:3.79999995;stroke-opacity:1;stroke-dasharray:none"
           d="m 1063.5,731 0,31.5 m 0,1507.5 0,-31.5"
           inkscape:connector-curvature="0" />
        <g
           transform="scale(10,10)"
           id="g3187">
          <text
             id="text3189"
             transform="matrix(0.707107,-0.707107,-0.707107,-0.707107,103.992,64.7418)">
            <tspan
               id="tspan3191"
               sodipodi:role="line"
               y="0"
               x="0 5.5600019 11.120004 16.680006 22.240007 25.020008 30.580009 36.140011 41.700012"
               style="font-size:10.00000286px;font-variant:normal;font-weight:normal;writing-mode:lr-tb;fill:#000000;fill-opacity:1;fill-rule:nonzero;stroke:none;font-family:Helvetica;-inkscape-font-specification:Helvetica">1000/7000</tspan>
          </text>
        </g>
        <path
           id="path3193"
           style="fill:none;stroke:#000000;stroke-width:5;stroke-linecap:butt;stroke-linejoin:miter;stroke-miterlimit:3.79999995;stroke-opacity:1;stroke-dasharray:none"
           d="m 1255,731 0,31.5 m 0,1507.5 0,-31.5"
           inkscape:connector-curvature="0" />
        <g
           transform="scale(10,10)"
           id="g3195">
          <text
             id="text3197"
             transform="matrix(0.707107,-0.707107,-0.707107,-0.707107,123.142,64.7418)">
            <tspan
               id="tspan3199"
               sodipodi:role="line"
               y="0"
               x="0 5.5600019 11.120004 16.680006 22.240007 25.020008 30.580009 36.140011 41.700012"
               style="font-size:10.00000286px;font-variant:normal;font-weight:normal;writing-mode:lr-tb;fill:#000000;fill-opacity:1;fill-rule:nonzero;stroke:none;font-family:Helvetica;-inkscape-font-specification:Helvetica">1000/9000</tspan>
          </text>
        </g>
        <path
           id="path3201"
           style="fill:none;stroke:#000000;stroke-width:5;stroke-linecap:butt;stroke-linejoin:miter;stroke-miterlimit:3.79999995;stroke-opacity:1;stroke-dasharray:none"
           d="m 1446,731 0,31.5 m 0,1507.5 0,-31.5"
           inkscape:connector-curvature="0" />
        <g
           transform="scale(10,10)"
           id="g3203">
          <text
             id="text3205"
             transform="matrix(0.707107,-0.707107,-0.707107,-0.707107,142.242,64.7418)">
            <tspan
               id="tspan3207"
               sodipodi:role="line"
               y="0"
               x="0 5.5600019 11.120004 16.680006 22.240007 25.020008 30.580009 36.140011 41.700012"
               style="font-size:10.00000286px;font-variant:normal;font-weight:normal;writing-mode:lr-tb;fill:#000000;fill-opacity:1;fill-rule:nonzero;stroke:none;font-family:Helvetica;-inkscape-font-specification:Helvetica">3000/1000</tspan>
          </text>
        </g>
        <path
           id="path3209"
           style="fill:none;stroke:#000000;stroke-width:5;stroke-linecap:butt;stroke-linejoin:miter;stroke-miterlimit:3.79999995;stroke-opacity:1;stroke-dasharray:none"
           d="m 1637,731 0,31.5 m 0,1507.5 0,-31.5"
           inkscape:connector-curvature="0" />
        <g
           transform="scale(10,10)"
           id="g3211">
          <text
             id="text3213"
             transform="matrix(0.707107,-0.707107,-0.707107,-0.707107,161.342,64.7418)">
            <tspan
               id="tspan3215"
               sodipodi:role="line"
               y="0"
               x="0 5.5600019 11.120004 16.680006 22.240007 25.020008 30.580009 36.140011 41.700012"
               style="font-size:10.00000286px;font-variant:normal;font-weight:normal;writing-mode:lr-tb;fill:#000000;fill-opacity:1;fill-rule:nonzero;stroke:none;font-family:Helvetica;-inkscape-font-specification:Helvetica">3000/3000</tspan>
          </text>
        </g>
        <path
           id="path3217"
           style="fill:none;stroke:#000000;stroke-width:5;stroke-linecap:butt;stroke-linejoin:miter;stroke-miterlimit:3.79999995;stroke-opacity:1;stroke-dasharray:none"
           d="m 1828.5,731 0,31.5 m 0,1507.5 0,-31.5"
           inkscape:connector-curvature="0" />
        <g
           transform="scale(10,10)"
           id="g3219">
          <text
             id="text3221"
             transform="matrix(0.707107,-0.707107,-0.707107,-0.707107,180.492,64.7418)">
            <tspan
               id="tspan3223"
               sodipodi:role="line"
               y="0"
               x="0 5.5600019 11.120004 16.680006 22.240007 25.020008 30.580009 36.140011 41.700012"
               style="font-size:10.00000286px;font-variant:normal;font-weight:normal;writing-mode:lr-tb;fill:#000000;fill-opacity:1;fill-rule:nonzero;stroke:none;font-family:Helvetica;-inkscape-font-specification:Helvetica">3000/5000</tspan>
          </text>
        </g>
        <path
           id="path3225"
           style="fill:none;stroke:#000000;stroke-width:5;stroke-linecap:butt;stroke-linejoin:miter;stroke-miterlimit:3.79999995;stroke-opacity:1;stroke-dasharray:none"
           d="m 2019.5,731 0,31.5 m 0,1507.5 0,-31.5"
           inkscape:connector-curvature="0" />
        <g
           transform="scale(10,10)"
           id="g3227">
          <text
             id="text3229"
             transform="matrix(0.707107,-0.707107,-0.707107,-0.707107,199.592,64.7418)">
            <tspan
               id="tspan3231"
               sodipodi:role="line"
               y="0"
               x="0 5.5600019 11.120004 16.680006 22.240007 25.020008 30.580009 36.140011 41.700012"
               style="font-size:10.00000286px;font-variant:normal;font-weight:normal;writing-mode:lr-tb;fill:#000000;fill-opacity:1;fill-rule:nonzero;stroke:none;font-family:Helvetica;-inkscape-font-specification:Helvetica">3000/7000</tspan>
          </text>
        </g>
        <path
           id="path3233"
           style="fill:none;stroke:#000000;stroke-width:5;stroke-linecap:butt;stroke-linejoin:miter;stroke-miterlimit:3.79999995;stroke-opacity:1;stroke-dasharray:none"
           d="m 2211,731 0,31.5 m 0,1507.5 0,-31.5"
           inkscape:connector-curvature="0" />
        <g
           transform="scale(10,10)"
           id="g3235">
          <text
             id="text3237"
             transform="matrix(0.707107,-0.707107,-0.707107,-0.707107,218.742,64.7418)">
            <tspan
               id="tspan3239"
               sodipodi:role="line"
               y="0"
               x="0 5.5600019 11.120004 16.680006 22.240007 25.020008 30.580009 36.140011 41.700012"
               style="font-size:10.00000286px;font-variant:normal;font-weight:normal;writing-mode:lr-tb;fill:#000000;fill-opacity:1;fill-rule:nonzero;stroke:none;font-family:Helvetica;-inkscape-font-specification:Helvetica">3000/9000</tspan>
          </text>
        </g>
        <path
           id="path3241"
           style="fill:none;stroke:#000000;stroke-width:5;stroke-linecap:butt;stroke-linejoin:miter;stroke-miterlimit:3.79999995;stroke-opacity:1;stroke-dasharray:none"
           d="m 2402,731 0,31.5 m 0,1507.5 0,-31.5"
           inkscape:connector-curvature="0" />
        <g
           transform="scale(10,10)"
           id="g3243">
          <text
             id="text3245"
             transform="matrix(0.707107,-0.707107,-0.707107,-0.707107,237.842,64.7418)">
            <tspan
               id="tspan3247"
               sodipodi:role="line"
               y="0"
               x="0 5.5600019 11.120004 16.680006 22.240007 25.020008 30.580009 36.140011 41.700012"
               style="font-size:10.00000286px;font-variant:normal;font-weight:normal;writing-mode:lr-tb;fill:#000000;fill-opacity:1;fill-rule:nonzero;stroke:none;font-family:Helvetica;-inkscape-font-specification:Helvetica">5000/1000</tspan>
          </text>
        </g>
        <path
           id="path3249"
           style="fill:none;stroke:#000000;stroke-width:5;stroke-linecap:butt;stroke-linejoin:miter;stroke-miterlimit:3.79999995;stroke-opacity:1;stroke-dasharray:none"
           d="m 2593,731 0,31.5 m 0,1507.5 0,-31.5"
           inkscape:connector-curvature="0" />
        <g
           transform="scale(10,10)"
           id="g3251">
          <text
             id="text3253"
             transform="matrix(0.707107,-0.707107,-0.707107,-0.707107,256.942,64.7418)">
            <tspan
               id="tspan3255"
               sodipodi:role="line"
               y="0"
               x="0 5.5600019 11.120004 16.680006 22.240007 25.020008 30.580009 36.140011 41.700012"
               style="font-size:10.00000286px;font-variant:normal;font-weight:normal;writing-mode:lr-tb;fill:#000000;fill-opacity:1;fill-rule:nonzero;stroke:none;font-family:Helvetica;-inkscape-font-specification:Helvetica">5000/3000</tspan>
          </text>
        </g>
        <path
           id="path3257"
           style="fill:none;stroke:#000000;stroke-width:5;stroke-linecap:butt;stroke-linejoin:miter;stroke-miterlimit:3.79999995;stroke-opacity:1;stroke-dasharray:none"
           d="m 2784.5,731 0,31.5 m 0,1507.5 0,-31.5"
           inkscape:connector-curvature="0" />
        <g
           transform="scale(10,10)"
           id="g3259">
          <text
             id="text3261"
             transform="matrix(0.707107,-0.707107,-0.707107,-0.707107,276.092,64.7418)">
            <tspan
               id="tspan3263"
               sodipodi:role="line"
               y="0"
               x="0 5.5600019 11.120004 16.680006 22.240007 25.020008 30.580009 36.140011 41.700012"
               style="font-size:10.00000286px;font-variant:normal;font-weight:normal;writing-mode:lr-tb;fill:#000000;fill-opacity:1;fill-rule:nonzero;stroke:none;font-family:Helvetica;-inkscape-font-specification:Helvetica">5000/5000</tspan>
          </text>
        </g>
        <path
           id="path3265"
           style="fill:none;stroke:#000000;stroke-width:5;stroke-linecap:butt;stroke-linejoin:miter;stroke-miterlimit:3.79999995;stroke-opacity:1;stroke-dasharray:none"
           d="m 2975.5,731 0,31.5 m 0,1507.5 0,-31.5"
           inkscape:connector-curvature="0" />
        <g
           transform="scale(10,10)"
           id="g3267">
          <text
             id="text3269"
             transform="matrix(0.707107,-0.707107,-0.707107,-0.707107,295.192,64.7418)">
            <tspan
               id="tspan3271"
               sodipodi:role="line"
               y="0"
               x="0 5.5600019 11.120004 16.680006 22.240007 25.020008 30.580009 36.140011 41.700012"
               style="font-size:10.00000286px;font-variant:normal;font-weight:normal;writing-mode:lr-tb;fill:#000000;fill-opacity:1;fill-rule:nonzero;stroke:none;font-family:Helvetica;-inkscape-font-specification:Helvetica">5000/7000</tspan>
          </text>
        </g>
        <path
           id="path3273"
           style="fill:none;stroke:#000000;stroke-width:5;stroke-linecap:butt;stroke-linejoin:miter;stroke-miterlimit:3.79999995;stroke-opacity:1;stroke-dasharray:none"
           d="m 3167,731 0,31.5 m 0,1507.5 0,-31.5"
           inkscape:connector-curvature="0" />
        <g
           transform="scale(10,10)"
           id="g3275">
          <text
             id="text3277"
             transform="matrix(0.707107,-0.707107,-0.707107,-0.707107,314.342,64.7418)">
            <tspan
               id="tspan3279"
               sodipodi:role="line"
               y="0"
               x="0 5.5600019 11.120004 16.680006 22.240007 25.020008 30.580009 36.140011 41.700012"
               style="font-size:10.00000286px;font-variant:normal;font-weight:normal;writing-mode:lr-tb;fill:#000000;fill-opacity:1;fill-rule:nonzero;stroke:none;font-family:Helvetica;-inkscape-font-specification:Helvetica">5000/9000</tspan>
          </text>
        </g>
        <path
           id="path3281"
           style="fill:none;stroke:#000000;stroke-width:5;stroke-linecap:butt;stroke-linejoin:miter;stroke-miterlimit:3.79999995;stroke-opacity:1;stroke-dasharray:none"
           d="m 490,731 2868,0 0,1539 -2868,0 0,-1539 z"
           inkscape:connector-curvature="0" />
        <g
           transform="scale(10,10)"
           id="g3283">
          <text
             id="text3285"
             transform="matrix(0,1,1,0,11.3352,104.197)">
            <tspan
               id="tspan3287"
               sodipodi:role="line"
               y="0"
               x="0 6.1100001 11.67 20 25.559999 31.120001 33.900002 39.459999 45.02 47.799999 54.470001 59.470001 65.029999 70.029999 75.589996 80.589996 86.150002"
               style="font-size:10px;font-variant:normal;font-weight:normal;writing-mode:lr-tb;fill:#000000;fill-opacity:1;fill-rule:nonzero;stroke:none;font-family:Helvetica;-inkscape-font-specification:Helvetica">Tempo de Execução</tspan>
          </text>
          <text
             id="text3289"
             transform="matrix(1,0,0,-1,92.9199,16.6148)">
            <tspan
               id="tspan3291"
               sodipodi:role="line"
               y="0"
               x="0 6.1100001 11.67 20 25.559999 31.120001 36.68 42.240002 45.02 50.580002 56.139999 58.919998 63.919998 69.480003 72.809998 75.029999 80.589996 83.370003 86.150002 88.93 96.150002 101.71 110.04 115.6 118.93 124.49 127.27 132.83 138.39 141.17 146.73 152.28999 155.62 163.95 169.50999 172.28999 177.85001 182.85001 188.41 193.97"
               style="font-size:10px;font-variant:normal;font-weight:normal;writing-mode:lr-tb;fill:#000000;fill-opacity:1;fill-rule:nonzero;stroke:none;font-family:Helvetica;-inkscape-font-specification:Helvetica">Tamanho da série / Número de permutações</tspan>
            <tspan
               id="tspan3293"
               sodipodi:role="line"
               y="-198.89999"
               x="58.6035 61.383499 68.053497 74.723503 82.503502 85.283501 88.063499 90.843498 96.403503 99.183502 104.7435 106.9635 109.7435 112.5235"
               style="font-size:10px;font-variant:normal;font-weight:normal;writing-mode:lr-tb;fill:#000000;fill-opacity:1;fill-rule:nonzero;stroke:none;font-family:Helvetica;-inkscape-font-specification:Helvetica">[SEQ] Intel I7</tspan>
          </text>
        </g>
        <path
           id="path3295"
           style="fill:none;stroke:#000000;stroke-width:10;stroke-linecap:butt;stroke-linejoin:miter;stroke-miterlimit:3.79999995;stroke-opacity:1;stroke-dasharray:none"
           d="m 2170,2188.5 271.5,0 M 490,731 l 191,13 191.5,12.5 191,13 191.5,13 191,-38.5 191,51 191.5,51.5 191,38.5 191.5,51 191,-166.5 191,77 191.5,77 191,77 191.5,77"
           inkscape:connector-curvature="0" />
        <g
           transform="scale(10,10)"
           id="g3297">
          <text
             id="text3299"
             transform="matrix(1,0,0,-1,95.4066,205.515)">
            <tspan
               id="tspan3301"
               sodipodi:role="line"
               y="0"
               x="0 2.78 10.56 18.889999 25.559999 28.34 31.120001 33.900002 39.459999 42.240002 47.799999 50.02 52.799999 55.580002 61.139999 63.919998 67.25 72.809998 75.589996 81.699997 87.260002 90.589996 96.150002 101.71 107.27 112.27"
               style="font-size:10px;font-variant:normal;font-weight:normal;writing-mode:lr-tb;fill:#000000;fill-opacity:1;fill-rule:nonzero;stroke:none;font-family:Helvetica;-inkscape-font-specification:Helvetica">[OMP] Intel I7 (2 Threads)</tspan>
          </text>
        </g>
        <path
           id="path3303"
           style="fill:none;stroke:#0000ff;stroke-width:10;stroke-linecap:butt;stroke-linejoin:miter;stroke-miterlimit:3.79999995;stroke-opacity:1;stroke-dasharray:none"
           d="m 2170,2088.5 271.5,0 M 490,731 l 191,25.5 191.5,26 191,25.5 191.5,13 191,-64.5 191,77 191.5,64 191,90 191.5,77 191,-282 191,102.5 191.5,141 191,115.5 191.5,89.5"
           inkscape:connector-curvature="0" />
        <g
           transform="scale(10,10)"
           id="g3305">
          <text
             id="text3307"
             transform="matrix(1,0,0,-1,95.4066,195.515)">
            <tspan
               id="tspan3309"
               sodipodi:role="line"
               y="0"
               x="0 2.78 10.56 18.889999 25.559999 28.34 31.120001 33.900002 39.459999 42.240002 47.799999 50.02 52.799999 55.580002 61.139999 63.919998 67.25 72.809998 75.589996 81.699997 87.260002 90.589996 96.150002 101.71 107.27 112.27"
               style="font-size:10px;font-variant:normal;font-weight:normal;writing-mode:lr-tb;fill:#000000;fill-opacity:1;fill-rule:nonzero;stroke:none;font-family:Helvetica;-inkscape-font-specification:Helvetica">[OMP] Intel I7 (4 Threads)</tspan>
          </text>
        </g>
        <path
           id="path3311"
           style="fill:none;stroke:#ff0000;stroke-width:10;stroke-linecap:butt;stroke-linejoin:miter;stroke-miterlimit:3.79999995;stroke-opacity:1;stroke-dasharray:none"
           d="m 2170,1988.5 271.5,0 M 490,744 l 191,51 191.5,64.5 191,38 191.5,38.5 191,-115 191,179.5 191.5,128 191,179.5 191.5,231 191,-654 191,307.5 191.5,308 191,320.5 191.5,308"
           inkscape:connector-curvature="0" />
        <g
           transform="scale(10,10)"
           id="g3313">
          <text
             id="text3315"
             transform="matrix(1,0,0,-1,95.4066,185.515)">
            <tspan
               id="tspan3317"
               sodipodi:role="line"
               y="0"
               x="0 2.78 10.56 18.889999 25.559999 28.34 31.120001 33.900002 39.459999 42.240002 47.799999 50.02 52.799999 55.580002 61.139999 63.919998 67.25 72.809998 75.589996 81.699997 87.260002 90.589996 96.150002 101.71 107.27 112.27"
               style="font-size:10px;font-variant:normal;font-weight:normal;writing-mode:lr-tb;fill:#000000;fill-opacity:1;fill-rule:nonzero;stroke:none;font-family:Helvetica;-inkscape-font-specification:Helvetica">[OMP] Intel I7 (8 Threads)</tspan>
          </text>
        </g>
        <path
           id="path3319"
           style="fill:none;stroke:#00ff00;stroke-width:10;stroke-linecap:butt;stroke-linejoin:miter;stroke-miterlimit:3.79999995;stroke-opacity:1;stroke-dasharray:none"
           d="m 2170,1888.5 271.5,0 M 490,756.5 681,808 l 191.5,64 191,51.5 191.5,51 191,-153.5 191,205 191.5,192.5 191,192 191.5,192.5 191,-705.5 191,308 191.5,346.5 191,320.5 191.5,346"
           inkscape:connector-curvature="0" />
        <path
           id="path3321"
           style="fill:none;stroke:#000000;stroke-width:5;stroke-linecap:butt;stroke-linejoin:miter;stroke-miterlimit:3.79999995;stroke-opacity:1;stroke-dasharray:none"
           d="m 490,731 2868,0 0,1539 -2868,0 0,-1539 z"
           inkscape:connector-curvature="0" />
      </g>
    </g>
  </g>
</svg>
