<?xml version="1.0" encoding="UTF-8" standalone="no"?>
<!-- Created with Inkscape (http://www.inkscape.org/) -->

<svg
   xmlns:dc="http://purl.org/dc/elements/1.1/"
   xmlns:cc="http://creativecommons.org/ns#"
   xmlns:rdf="http://www.w3.org/1999/02/22-rdf-syntax-ns#"
   xmlns:svg="http://www.w3.org/2000/svg"
   xmlns="http://www.w3.org/2000/svg"
   xmlns:sodipodi="http://sodipodi.sourceforge.net/DTD/sodipodi-0.dtd"
   xmlns:inkscape="http://www.inkscape.org/namespaces/inkscape"
   width="442.91336"
   height="275.0177"
   id="svg6924"
   version="1.1"
   inkscape:version="0.48.3.1 r9886"
   sodipodi:docname="edicao_mcarlo_omp.svg">
  <defs
     id="defs6926" />
  <sodipodi:namedview
     id="base"
     pagecolor="#ffffff"
     bordercolor="#666666"
     borderopacity="1.0"
     inkscape:pageopacity="0.0"
     inkscape:pageshadow="2"
     inkscape:zoom="0.98994949"
     inkscape:cx="-90.510516"
     inkscape:cy="194.8318"
     inkscape:document-units="px"
     inkscape:current-layer="layer1"
     showgrid="false"
     fit-margin-top="0"
     fit-margin-left="0"
     fit-margin-right="0"
     fit-margin-bottom="0"
     inkscape:window-width="1600"
     inkscape:window-height="876"
     inkscape:window-x="0"
     inkscape:window-y="24"
     inkscape:window-maximized="1" />
  <metadata
     id="metadata6929">
    <rdf:RDF>
      <cc:Work
         rdf:about="">
        <dc:format>image/svg+xml</dc:format>
        <dc:type
           rdf:resource="http://purl.org/dc/dcmitype/StillImage" />
        <dc:title></dc:title>
      </cc:Work>
    </rdf:RDF>
  </metadata>
  <g
     inkscape:label="Camada 1"
     inkscape:groupmode="layer"
     id="layer1"
     transform="translate(-1086.2141,-639.65788)">
    <g
       transform="matrix(1.2713455,0,0,-1.2713455,1081.0713,933.02721)"
       inkscape:label="ink_ext_XXXXXX"
       id="g4095"
       inkscape:export-filename="/home/bruno/Materias_UFPR/TG_CUDA/Artigo_TG/Imagens/graficos_mcarlo/mcarlo_omp.png"
       inkscape:export-xdpi="300"
       inkscape:export-ydpi="300">
      <g
         transform="scale(0.1,0.1)"
         id="g4097">
        <path
           id="path4099"
           style="fill:none;stroke:#000000;stroke-width:5;stroke-linecap:butt;stroke-linejoin:miter;stroke-miterlimit:3.79999995;stroke-opacity:1;stroke-dasharray:none"
           d="m 490,731 31.5,0 m 2836.5,0 -31.5,0"
           inkscape:connector-curvature="0" />
        <g
           transform="scale(10,10)"
           id="g4101">
          <text
             id="text4103"
             transform="matrix(1,0,0,-1,29.1105,69.7648)">
            <tspan
               id="tspan4105"
               sodipodi:role="line"
               y="0"
               x="0 5.5599999"
               style="font-size:10px;font-variant:normal;font-weight:normal;writing-mode:lr-tb;fill:#000000;fill-opacity:1;fill-rule:nonzero;stroke:none;font-family:Helvetica;-inkscape-font-specification:Helvetica">0m</tspan>
          </text>
        </g>
        <path
           id="path4107"
           style="fill:none;stroke:#000000;stroke-width:5;stroke-linecap:butt;stroke-linejoin:miter;stroke-miterlimit:3.79999995;stroke-opacity:1;stroke-dasharray:none"
           d="m 490,1039 31.5,0 m 2836.5,0 -31.5,0"
           inkscape:connector-curvature="0" />
        <g
           transform="scale(10,10)"
           id="g4109">
          <text
             id="text4111"
             transform="matrix(1,0,0,-1,23.5508,100.565)">
            <tspan
               id="tspan4113"
               sodipodi:role="line"
               y="0"
               x="0 5.5599999 11.12"
               style="font-size:10px;font-variant:normal;font-weight:normal;writing-mode:lr-tb;fill:#000000;fill-opacity:1;fill-rule:nonzero;stroke:none;font-family:Helvetica;-inkscape-font-specification:Helvetica">50m</tspan>
          </text>
        </g>
        <path
           id="path4115"
           style="fill:none;stroke:#000000;stroke-width:5;stroke-linecap:butt;stroke-linejoin:miter;stroke-miterlimit:3.79999995;stroke-opacity:1;stroke-dasharray:none"
           d="m 490,1346.5 31.5,0 m 2836.5,0 -31.5,0"
           inkscape:connector-curvature="0" />
        <g
           transform="scale(10,10)"
           id="g4117">
          <text
             id="text4119"
             transform="matrix(1,0,0,-1,17.991,131.315)">
            <tspan
               id="tspan4121"
               sodipodi:role="line"
               y="0"
               x="0 5.5599999 11.12 16.68"
               style="font-size:10px;font-variant:normal;font-weight:normal;writing-mode:lr-tb;fill:#000000;fill-opacity:1;fill-rule:nonzero;stroke:none;font-family:Helvetica;-inkscape-font-specification:Helvetica">100m</tspan>
          </text>
        </g>
        <path
           id="path4123"
           style="fill:none;stroke:#000000;stroke-width:5;stroke-linecap:butt;stroke-linejoin:miter;stroke-miterlimit:3.79999995;stroke-opacity:1;stroke-dasharray:none"
           d="m 490,1654.5 31.5,0 m 2836.5,0 -31.5,0"
           inkscape:connector-curvature="0" />
        <g
           transform="scale(10,10)"
           id="g4125">
          <text
             id="text4127"
             transform="matrix(1,0,0,-1,17.991,162.115)">
            <tspan
               id="tspan4129"
               sodipodi:role="line"
               y="0"
               x="0 5.5599999 11.12 16.68"
               style="font-size:10px;font-variant:normal;font-weight:normal;writing-mode:lr-tb;fill:#000000;fill-opacity:1;fill-rule:nonzero;stroke:none;font-family:Helvetica;-inkscape-font-specification:Helvetica">150m</tspan>
          </text>
        </g>
        <path
           id="path4131"
           style="fill:none;stroke:#000000;stroke-width:5;stroke-linecap:butt;stroke-linejoin:miter;stroke-miterlimit:3.79999995;stroke-opacity:1;stroke-dasharray:none"
           d="m 490,1962 31.5,0 m 2836.5,0 -31.5,0"
           inkscape:connector-curvature="0" />
        <g
           transform="scale(10,10)"
           id="g4133">
          <text
             id="text4135"
             transform="matrix(1,0,0,-1,17.991,192.865)">
            <tspan
               id="tspan4137"
               sodipodi:role="line"
               y="0"
               x="0 5.5599999 11.12 16.68"
               style="font-size:10px;font-variant:normal;font-weight:normal;writing-mode:lr-tb;fill:#000000;fill-opacity:1;fill-rule:nonzero;stroke:none;font-family:Helvetica;-inkscape-font-specification:Helvetica">200m</tspan>
          </text>
        </g>
        <path
           id="path4139"
           style="fill:none;stroke:#000000;stroke-width:5;stroke-linecap:butt;stroke-linejoin:miter;stroke-miterlimit:3.79999995;stroke-opacity:1;stroke-dasharray:none"
           d="m 490,2270 31.5,0 m 2836.5,0 -31.5,0"
           inkscape:connector-curvature="0" />
        <g
           transform="scale(10,10)"
           id="g4141">
          <text
             id="text4143"
             transform="matrix(1,0,0,-1,17.991,223.665)">
            <tspan
               id="tspan4145"
               sodipodi:role="line"
               y="0"
               x="0 5.5599999 11.12 16.68"
               style="font-size:10px;font-variant:normal;font-weight:normal;writing-mode:lr-tb;fill:#000000;fill-opacity:1;fill-rule:nonzero;stroke:none;font-family:Helvetica;-inkscape-font-specification:Helvetica">250m</tspan>
          </text>
        </g>
        <path
           id="path4147"
           style="fill:none;stroke:#000000;stroke-width:5;stroke-linecap:butt;stroke-linejoin:miter;stroke-miterlimit:3.79999995;stroke-opacity:1;stroke-dasharray:none"
           d="m 490,731 0,31.5 m 0,1507.5 0,-31.5"
           inkscape:connector-curvature="0" />
        <g
           transform="scale(10,10)"
           id="g4149">
          <text
             id="text4151"
             transform="matrix(0.707107,-0.707107,-0.707107,-0.707107,46.6418,64.7418)">
            <tspan
               id="tspan4153"
               sodipodi:role="line"
               y="0"
               x="0 5.5600019 11.120004 16.680006 22.240007 25.020008 30.580009 36.140011 41.700012"
               style="font-size:10.00000286px;font-variant:normal;font-weight:normal;writing-mode:lr-tb;fill:#000000;fill-opacity:1;fill-rule:nonzero;stroke:none;font-family:Helvetica;-inkscape-font-specification:Helvetica">1000/1000</tspan>
          </text>
        </g>
        <path
           id="path4155"
           style="fill:none;stroke:#000000;stroke-width:5;stroke-linecap:butt;stroke-linejoin:miter;stroke-miterlimit:3.79999995;stroke-opacity:1;stroke-dasharray:none"
           d="m 681,731 0,31.5 m 0,1507.5 0,-31.5"
           inkscape:connector-curvature="0" />
        <g
           transform="scale(10,10)"
           id="g4157">
          <text
             id="text4159"
             transform="matrix(0.707107,-0.707107,-0.707107,-0.707107,65.7418,64.7418)">
            <tspan
               id="tspan4161"
               sodipodi:role="line"
               y="0"
               x="0 5.5600019 11.120004 16.680006 22.240007 25.020008 30.580009 36.140011 41.700012"
               style="font-size:10.00000286px;font-variant:normal;font-weight:normal;writing-mode:lr-tb;fill:#000000;fill-opacity:1;fill-rule:nonzero;stroke:none;font-family:Helvetica;-inkscape-font-specification:Helvetica">1000/3000</tspan>
          </text>
        </g>
        <path
           id="path4163"
           style="fill:none;stroke:#000000;stroke-width:5;stroke-linecap:butt;stroke-linejoin:miter;stroke-miterlimit:3.79999995;stroke-opacity:1;stroke-dasharray:none"
           d="m 872.5,731 0,31.5 m 0,1507.5 0,-31.5"
           inkscape:connector-curvature="0" />
        <g
           transform="scale(10,10)"
           id="g4165">
          <text
             id="text4167"
             transform="matrix(0.707107,-0.707107,-0.707107,-0.707107,84.8918,64.7418)">
            <tspan
               id="tspan4169"
               sodipodi:role="line"
               y="0"
               x="0 5.5600019 11.120004 16.680006 22.240007 25.020008 30.580009 36.140011 41.700012"
               style="font-size:10.00000286px;font-variant:normal;font-weight:normal;writing-mode:lr-tb;fill:#000000;fill-opacity:1;fill-rule:nonzero;stroke:none;font-family:Helvetica;-inkscape-font-specification:Helvetica">1000/5000</tspan>
          </text>
        </g>
        <path
           id="path4171"
           style="fill:none;stroke:#000000;stroke-width:5;stroke-linecap:butt;stroke-linejoin:miter;stroke-miterlimit:3.79999995;stroke-opacity:1;stroke-dasharray:none"
           d="m 1063.5,731 0,31.5 m 0,1507.5 0,-31.5"
           inkscape:connector-curvature="0" />
        <g
           transform="scale(10,10)"
           id="g4173">
          <text
             id="text4175"
             transform="matrix(0.707107,-0.707107,-0.707107,-0.707107,103.992,64.7418)">
            <tspan
               id="tspan4177"
               sodipodi:role="line"
               y="0"
               x="0 5.5600019 11.120004 16.680006 22.240007 25.020008 30.580009 36.140011 41.700012"
               style="font-size:10.00000286px;font-variant:normal;font-weight:normal;writing-mode:lr-tb;fill:#000000;fill-opacity:1;fill-rule:nonzero;stroke:none;font-family:Helvetica;-inkscape-font-specification:Helvetica">1000/7000</tspan>
          </text>
        </g>
        <path
           id="path4179"
           style="fill:none;stroke:#000000;stroke-width:5;stroke-linecap:butt;stroke-linejoin:miter;stroke-miterlimit:3.79999995;stroke-opacity:1;stroke-dasharray:none"
           d="m 1255,731 0,31.5 m 0,1507.5 0,-31.5"
           inkscape:connector-curvature="0" />
        <g
           transform="scale(10,10)"
           id="g4181">
          <text
             id="text4183"
             transform="matrix(0.707107,-0.707107,-0.707107,-0.707107,123.142,64.7418)">
            <tspan
               id="tspan4185"
               sodipodi:role="line"
               y="0"
               x="0 5.5600019 11.120004 16.680006 22.240007 25.020008 30.580009 36.140011 41.700012"
               style="font-size:10.00000286px;font-variant:normal;font-weight:normal;writing-mode:lr-tb;fill:#000000;fill-opacity:1;fill-rule:nonzero;stroke:none;font-family:Helvetica;-inkscape-font-specification:Helvetica">1000/9000</tspan>
          </text>
        </g>
        <path
           id="path4187"
           style="fill:none;stroke:#000000;stroke-width:5;stroke-linecap:butt;stroke-linejoin:miter;stroke-miterlimit:3.79999995;stroke-opacity:1;stroke-dasharray:none"
           d="m 1446,731 0,31.5 m 0,1507.5 0,-31.5"
           inkscape:connector-curvature="0" />
        <g
           transform="scale(10,10)"
           id="g4189">
          <text
             id="text4191"
             transform="matrix(0.707107,-0.707107,-0.707107,-0.707107,142.242,64.7418)">
            <tspan
               id="tspan4193"
               sodipodi:role="line"
               y="0"
               x="0 5.5600019 11.120004 16.680006 22.240007 25.020008 30.580009 36.140011 41.700012"
               style="font-size:10.00000286px;font-variant:normal;font-weight:normal;writing-mode:lr-tb;fill:#000000;fill-opacity:1;fill-rule:nonzero;stroke:none;font-family:Helvetica;-inkscape-font-specification:Helvetica">3000/1000</tspan>
          </text>
        </g>
        <path
           id="path4195"
           style="fill:none;stroke:#000000;stroke-width:5;stroke-linecap:butt;stroke-linejoin:miter;stroke-miterlimit:3.79999995;stroke-opacity:1;stroke-dasharray:none"
           d="m 1637,731 0,31.5 m 0,1507.5 0,-31.5"
           inkscape:connector-curvature="0" />
        <g
           transform="scale(10,10)"
           id="g4197">
          <text
             id="text4199"
             transform="matrix(0.707107,-0.707107,-0.707107,-0.707107,161.342,64.7418)">
            <tspan
               id="tspan4201"
               sodipodi:role="line"
               y="0"
               x="0 5.5600019 11.120004 16.680006 22.240007 25.020008 30.580009 36.140011 41.700012"
               style="font-size:10.00000286px;font-variant:normal;font-weight:normal;writing-mode:lr-tb;fill:#000000;fill-opacity:1;fill-rule:nonzero;stroke:none;font-family:Helvetica;-inkscape-font-specification:Helvetica">3000/3000</tspan>
          </text>
        </g>
        <path
           id="path4203"
           style="fill:none;stroke:#000000;stroke-width:5;stroke-linecap:butt;stroke-linejoin:miter;stroke-miterlimit:3.79999995;stroke-opacity:1;stroke-dasharray:none"
           d="m 1828.5,731 0,31.5 m 0,1507.5 0,-31.5"
           inkscape:connector-curvature="0" />
        <g
           transform="scale(10,10)"
           id="g4205">
          <text
             id="text4207"
             transform="matrix(0.707107,-0.707107,-0.707107,-0.707107,180.492,64.7418)">
            <tspan
               id="tspan4209"
               sodipodi:role="line"
               y="0"
               x="0 5.5600019 11.120004 16.680006 22.240007 25.020008 30.580009 36.140011 41.700012"
               style="font-size:10.00000286px;font-variant:normal;font-weight:normal;writing-mode:lr-tb;fill:#000000;fill-opacity:1;fill-rule:nonzero;stroke:none;font-family:Helvetica;-inkscape-font-specification:Helvetica">3000/5000</tspan>
          </text>
        </g>
        <path
           id="path4211"
           style="fill:none;stroke:#000000;stroke-width:5;stroke-linecap:butt;stroke-linejoin:miter;stroke-miterlimit:3.79999995;stroke-opacity:1;stroke-dasharray:none"
           d="m 2019.5,731 0,31.5 m 0,1507.5 0,-31.5"
           inkscape:connector-curvature="0" />
        <g
           transform="scale(10,10)"
           id="g4213">
          <text
             id="text4215"
             transform="matrix(0.707107,-0.707107,-0.707107,-0.707107,199.592,64.7418)">
            <tspan
               id="tspan4217"
               sodipodi:role="line"
               y="0"
               x="0 5.5600019 11.120004 16.680006 22.240007 25.020008 30.580009 36.140011 41.700012"
               style="font-size:10.00000286px;font-variant:normal;font-weight:normal;writing-mode:lr-tb;fill:#000000;fill-opacity:1;fill-rule:nonzero;stroke:none;font-family:Helvetica;-inkscape-font-specification:Helvetica">3000/7000</tspan>
          </text>
        </g>
        <path
           id="path4219"
           style="fill:none;stroke:#000000;stroke-width:5;stroke-linecap:butt;stroke-linejoin:miter;stroke-miterlimit:3.79999995;stroke-opacity:1;stroke-dasharray:none"
           d="m 2211,731 0,31.5 m 0,1507.5 0,-31.5"
           inkscape:connector-curvature="0" />
        <g
           transform="scale(10,10)"
           id="g4221">
          <text
             id="text4223"
             transform="matrix(0.707107,-0.707107,-0.707107,-0.707107,218.742,64.7418)">
            <tspan
               id="tspan4225"
               sodipodi:role="line"
               y="0"
               x="0 5.5600019 11.120004 16.680006 22.240007 25.020008 30.580009 36.140011 41.700012"
               style="font-size:10.00000286px;font-variant:normal;font-weight:normal;writing-mode:lr-tb;fill:#000000;fill-opacity:1;fill-rule:nonzero;stroke:none;font-family:Helvetica;-inkscape-font-specification:Helvetica">3000/9000</tspan>
          </text>
        </g>
        <path
           id="path4227"
           style="fill:none;stroke:#000000;stroke-width:5;stroke-linecap:butt;stroke-linejoin:miter;stroke-miterlimit:3.79999995;stroke-opacity:1;stroke-dasharray:none"
           d="m 2402,731 0,31.5 m 0,1507.5 0,-31.5"
           inkscape:connector-curvature="0" />
        <g
           transform="scale(10,10)"
           id="g4229">
          <text
             id="text4231"
             transform="matrix(0.707107,-0.707107,-0.707107,-0.707107,237.842,64.7418)">
            <tspan
               id="tspan4233"
               sodipodi:role="line"
               y="0"
               x="0 5.5600019 11.120004 16.680006 22.240007 25.020008 30.580009 36.140011 41.700012"
               style="font-size:10.00000286px;font-variant:normal;font-weight:normal;writing-mode:lr-tb;fill:#000000;fill-opacity:1;fill-rule:nonzero;stroke:none;font-family:Helvetica;-inkscape-font-specification:Helvetica">5000/1000</tspan>
          </text>
        </g>
        <path
           id="path4235"
           style="fill:none;stroke:#000000;stroke-width:5;stroke-linecap:butt;stroke-linejoin:miter;stroke-miterlimit:3.79999995;stroke-opacity:1;stroke-dasharray:none"
           d="m 2593,731 0,31.5 m 0,1507.5 0,-31.5"
           inkscape:connector-curvature="0" />
        <g
           transform="scale(10,10)"
           id="g4237">
          <text
             id="text4239"
             transform="matrix(0.707107,-0.707107,-0.707107,-0.707107,256.942,64.7418)">
            <tspan
               id="tspan4241"
               sodipodi:role="line"
               y="0"
               x="0 5.5600019 11.120004 16.680006 22.240007 25.020008 30.580009 36.140011 41.700012"
               style="font-size:10.00000286px;font-variant:normal;font-weight:normal;writing-mode:lr-tb;fill:#000000;fill-opacity:1;fill-rule:nonzero;stroke:none;font-family:Helvetica;-inkscape-font-specification:Helvetica">5000/3000</tspan>
          </text>
        </g>
        <path
           id="path4243"
           style="fill:none;stroke:#000000;stroke-width:5;stroke-linecap:butt;stroke-linejoin:miter;stroke-miterlimit:3.79999995;stroke-opacity:1;stroke-dasharray:none"
           d="m 2784.5,731 0,31.5 m 0,1507.5 0,-31.5"
           inkscape:connector-curvature="0" />
        <g
           transform="scale(10,10)"
           id="g4245">
          <text
             id="text4247"
             transform="matrix(0.707107,-0.707107,-0.707107,-0.707107,276.092,64.7418)">
            <tspan
               id="tspan4249"
               sodipodi:role="line"
               y="0"
               x="0 5.5600019 11.120004 16.680006 22.240007 25.020008 30.580009 36.140011 41.700012"
               style="font-size:10.00000286px;font-variant:normal;font-weight:normal;writing-mode:lr-tb;fill:#000000;fill-opacity:1;fill-rule:nonzero;stroke:none;font-family:Helvetica;-inkscape-font-specification:Helvetica">5000/5000</tspan>
          </text>
        </g>
        <path
           id="path4251"
           style="fill:none;stroke:#000000;stroke-width:5;stroke-linecap:butt;stroke-linejoin:miter;stroke-miterlimit:3.79999995;stroke-opacity:1;stroke-dasharray:none"
           d="m 2975.5,731 0,31.5 m 0,1507.5 0,-31.5"
           inkscape:connector-curvature="0" />
        <g
           transform="scale(10,10)"
           id="g4253">
          <text
             id="text4255"
             transform="matrix(0.707107,-0.707107,-0.707107,-0.707107,295.192,64.7418)">
            <tspan
               id="tspan4257"
               sodipodi:role="line"
               y="0"
               x="0 5.5600019 11.120004 16.680006 22.240007 25.020008 30.580009 36.140011 41.700012"
               style="font-size:10.00000286px;font-variant:normal;font-weight:normal;writing-mode:lr-tb;fill:#000000;fill-opacity:1;fill-rule:nonzero;stroke:none;font-family:Helvetica;-inkscape-font-specification:Helvetica">5000/7000</tspan>
          </text>
        </g>
        <path
           id="path4259"
           style="fill:none;stroke:#000000;stroke-width:5;stroke-linecap:butt;stroke-linejoin:miter;stroke-miterlimit:3.79999995;stroke-opacity:1;stroke-dasharray:none"
           d="m 3167,731 0,31.5 m 0,1507.5 0,-31.5"
           inkscape:connector-curvature="0" />
        <g
           transform="scale(10,10)"
           id="g4261">
          <text
             id="text4263"
             transform="matrix(0.707107,-0.707107,-0.707107,-0.707107,314.342,64.7418)">
            <tspan
               id="tspan4265"
               sodipodi:role="line"
               y="0"
               x="0 5.5600019 11.120004 16.680006 22.240007 25.020008 30.580009 36.140011 41.700012"
               style="font-size:10.00000286px;font-variant:normal;font-weight:normal;writing-mode:lr-tb;fill:#000000;fill-opacity:1;fill-rule:nonzero;stroke:none;font-family:Helvetica;-inkscape-font-specification:Helvetica">5000/9000</tspan>
          </text>
        </g>
        <path
           id="path4267"
           style="fill:none;stroke:#000000;stroke-width:5;stroke-linecap:butt;stroke-linejoin:miter;stroke-miterlimit:3.79999995;stroke-opacity:1;stroke-dasharray:none"
           d="m 490,731 2868,0 0,1539 -2868,0 0,-1539 z"
           inkscape:connector-curvature="0" />
        <g
           transform="scale(10,10)"
           id="g4269">
          <text
             id="text4271"
             transform="matrix(0,1,1,0,11.3352,104.197)">
            <tspan
               id="tspan4273"
               sodipodi:role="line"
               y="0"
               x="0 6.1100001 11.67 20 25.559999 31.120001 33.900002 39.459999 45.02 47.799999 54.470001 59.470001 65.029999 70.029999 75.589996 80.589996 86.150002"
               style="font-size:10px;font-variant:normal;font-weight:normal;writing-mode:lr-tb;fill:#000000;fill-opacity:1;fill-rule:nonzero;stroke:none;font-family:Helvetica;-inkscape-font-specification:Helvetica">Tempo de Execução</tspan>
          </text>
          <text
             id="text4275"
             transform="matrix(1,0,0,-1,92.9199,16.6148)">
            <tspan
               id="tspan4277"
               sodipodi:role="line"
               y="0"
               x="0 6.1100001 11.67 20 25.559999 31.120001 36.68 42.240002 45.02 50.580002 56.139999 58.919998 63.919998 69.480003 72.809998 75.029999 80.589996 83.370003 86.150002 88.93 96.150002 101.71 110.04 115.6 118.93 124.49 127.27 132.83 138.39 141.17 146.73 152.28999 155.62 163.95 169.50999 172.28999 177.85001 182.85001 188.41 193.97"
               style="font-size:10px;font-variant:normal;font-weight:normal;writing-mode:lr-tb;fill:#000000;fill-opacity:1;fill-rule:nonzero;stroke:none;font-family:Helvetica;-inkscape-font-specification:Helvetica">Tamanho da série / Número de permutações</tspan>
            <tspan
               id="tspan4279"
               sodipodi:role="line"
               y="-198.89999"
               x="4.6035199 7.3835201 14.05352 20.72352 28.503519 31.28352 34.063519 36.843521 42.403519 45.183521 50.743519 52.96352 55.743519 58.523521"
               style="font-size:10px;font-variant:normal;font-weight:normal;writing-mode:lr-tb;fill:#000000;fill-opacity:1;fill-rule:nonzero;stroke:none;font-family:Helvetica;-inkscape-font-specification:Helvetica">[SEQ] Intel I7</tspan>
          </text>
        </g>
        <path
           id="path4281"
           style="fill:none;stroke:#000000;stroke-width:10;stroke-linecap:butt;stroke-linejoin:miter;stroke-miterlimit:3.79999995;stroke-opacity:1;stroke-dasharray:none"
           d="m 1630,2188.5 271.5,0 M 490,731 l 191,6 191.5,6.5 191,6 191.5,6 191,-18.5 191,25 191.5,24.5 191,18.5 191.5,24.5 191,-80 191,37 191.5,37 191,37 191.5,36.5"
           inkscape:connector-curvature="0" />
        <g
           transform="scale(10,10)"
           id="g4283">
          <text
             id="text4285"
             transform="matrix(1,0,0,-1,95.8637,205.515)">
            <tspan
               id="tspan4287"
               sodipodi:role="line"
               y="0"
               x="0 2.78 10.56 18.889999 25.559999 28.34 31.120001 33.900002 39.459999 42.240002 47.799999 50.02 52.799999 55.580002"
               style="font-size:10px;font-variant:normal;font-weight:normal;writing-mode:lr-tb;fill:#000000;fill-opacity:1;fill-rule:nonzero;stroke:none;font-family:Helvetica;-inkscape-font-specification:Helvetica">[OMP] Intel I5</tspan>
          </text>
        </g>
        <path
           id="path4289"
           style="fill:none;stroke:#0000ff;stroke-width:10;stroke-linecap:butt;stroke-linejoin:miter;stroke-miterlimit:3.79999995;stroke-opacity:1;stroke-dasharray:none"
           d="m 1630,2088.5 271.5,0 M 490,743.5 l 191,55 191.5,37 191,43 191.5,80.5 191,-135.5 191,141.5 191.5,80 191,104.5 191.5,302 191,-597.5 191,191 191.5,400 191,12.5 191.5,184.5"
           inkscape:connector-curvature="0" />
        <g
           transform="scale(10,10)"
           id="g4291">
          <text
             id="text4293"
             transform="matrix(1,0,0,-1,95.8637,195.515)">
            <tspan
               id="tspan4295"
               sodipodi:role="line"
               y="0"
               x="0 2.78 10.56 18.889999 25.559999 28.34 31.120001 33.900002 39.459999 42.240002 47.799999 50.02 52.799999 55.580002"
               style="font-size:10px;font-variant:normal;font-weight:normal;writing-mode:lr-tb;fill:#000000;fill-opacity:1;fill-rule:nonzero;stroke:none;font-family:Helvetica;-inkscape-font-specification:Helvetica">[OMP] Intel I7</tspan>
          </text>
        </g>
        <path
           id="path4297"
           style="fill:none;stroke:#ff0000;stroke-width:10;stroke-linecap:butt;stroke-linejoin:miter;stroke-miterlimit:3.79999995;stroke-opacity:1;stroke-dasharray:none"
           d="m 1630,1988.5 271.5,0 M 490,743.5 681,768 l 191.5,30.5 191,25 191.5,24.5 191,-74 191,98.5 191.5,92.5 191,92.5 191.5,92 191,-338.5 191,148 191.5,166 191,154 191.5,166"
           inkscape:connector-curvature="0" />
        <g
           transform="scale(10,10)"
           id="g4299">
          <text
             id="text4301"
             transform="matrix(1,0,0,-1,64.7543,185.515)">
            <tspan
               id="tspan4303"
               sodipodi:role="line"
               y="0"
               x="0 2.78 10.56 18.889999 25.559999 28.34 31.120001 37.790001 46.119999 53.34 56.119999 63.900002 69.459999 72.239998 77.800003 81.129997 86.690002"
               style="font-size:10px;font-variant:normal;font-weight:normal;writing-mode:lr-tb;fill:#000000;fill-opacity:1;fill-rule:nonzero;stroke:none;font-family:Helvetica;-inkscape-font-specification:Helvetica">[OMP] AMD Opteron</tspan>
          </text>
        </g>
        <path
           id="path4305"
           style="fill:none;stroke:#00ff00;stroke-width:10;stroke-linecap:butt;stroke-linejoin:miter;stroke-miterlimit:3.79999995;stroke-opacity:1;stroke-dasharray:none"
           d="m 1630,1888.5 271.5,0 M 490,755.5 681,811 l 191.5,61.5 191,55.5 191.5,49 191,-166 191,191 191.5,172 191,209.5 191.5,215.5 191,-708 191,289.5 191.5,320 191,326.5 191.5,289"
           inkscape:connector-curvature="0" />
        <path
           id="path4307"
           style="fill:none;stroke:#000000;stroke-width:5;stroke-linecap:butt;stroke-linejoin:miter;stroke-miterlimit:3.79999995;stroke-opacity:1;stroke-dasharray:none"
           d="m 490,731 2868,0 0,1539 -2868,0 0,-1539 z"
           inkscape:connector-curvature="0" />
      </g>
    </g>
  </g>
</svg>
